 <svg version="1.1" id="Gr_2" xmlns="http://www.w3.org/2000/svg" xmlns:xlink="http://www.w3.org/1999/xlink" x="0px" y="0px"
	             width="200px" height="200px" viewBox="0 0 200 200" enable-background="new 0 0 200 200" xml:space="preserve">
               <g>
	                <path fill-rule="evenodd" clip-rule="evenodd" fill="#36eefc" stroke="#000000" stroke-miterlimit="10" d="M199.482,97.977
		                c0.008,0.482,0.019,0.964,0.019,1.449c0,5.518-0.467,10.927-1.35,16.197c-5.428,1.158-12.258,2.212-20.496,3.159
		                c-1.171,4.602-2.75,9.041-4.697,13.279c5.838,5.843,10.507,10.896,14.015,15.162c-2.918,5.175-6.289,10.063-10.07,14.604
		                c-5.288-1.687-11.739-4.163-19.359-7.429c-3.298,3.358-6.894,6.429-10.747,9.165c2.109,7.96,3.605,14.655,4.492,20.091
		                c-5.08,3.014-10.455,5.589-16.073,7.672c-3.728-4.081-8.064-9.421-13.016-16.023c-4.499,1.259-9.16,2.131-13.945,2.587
		                c-2.185,7.931-4.263,14.465-6.235,19.61c-0.487,0.008-0.973,0.019-1.461,0.019c-5.566,0-11.022-0.463-16.337-1.338
		                c-1.169-5.381-2.232-12.152-3.188-20.32c-4.64-1.161-9.118-2.727-13.393-4.656c-5.894,5.786-10.991,10.416-15.294,13.894
		                c-5.219-2.893-10.15-6.235-14.731-9.983c1.703-5.242,4.2-11.639,7.494-19.193c-3.389-3.27-6.486-6.834-9.245-10.655
		                c-8.028,2.092-14.781,3.575-20.265,4.454c-3.04-5.036-5.637-10.365-7.739-15.935c4.116-3.696,9.502-7.996,16.164-12.904
		                c-1.27-4.46-2.151-9.081-2.61-13.825c-8-2.166-14.591-4.227-19.781-6.182c-0.007-0.483-0.019-0.964-0.019-1.449
		                c0-5.518,0.467-10.927,1.35-16.197c5.427-1.159,12.257-2.213,20.496-3.161c1.171-4.6,2.75-9.04,4.696-13.278
		                c-5.836-5.843-10.506-10.896-14.013-15.162c2.918-5.174,6.289-10.063,10.07-14.605c5.288,1.688,11.739,4.164,19.359,7.43
		                c3.298-3.359,6.893-6.43,10.747-9.166c-2.109-7.959-3.606-14.654-4.493-20.09c5.081-3.014,10.456-5.588,16.073-7.672
		                c3.728,4.081,8.065,9.42,13.016,16.024c4.499-1.259,9.16-2.132,13.945-2.588c2.186-7.931,4.264-14.466,6.236-19.61
		                c0.487-0.007,0.973-0.019,1.461-0.019c5.566,0,11.022,0.463,16.337,1.338c1.169,5.38,2.231,12.152,3.188,20.32
		                c4.641,1.161,9.118,2.726,13.394,4.656c5.894-5.787,10.991-10.416,15.294-13.893c5.219,2.893,10.15,6.235,14.731,9.984
		                c-1.703,5.242-4.199,11.639-7.494,19.193c3.389,3.269,6.485,6.833,9.245,10.654c8.028-2.091,14.781-3.575,20.265-4.454
		                c3.04,5.037,5.637,10.366,7.738,15.936c-4.116,3.695-9.502,7.996-16.163,12.904c1.27,4.46,2.15,9.082,2.61,13.825
		                C187.701,93.961,194.293,96.021,199.482,97.977z M92.333,158.879V135.71c-14.111-3.129-25.219-14.142-28.376-28.131H40.589
		                C44.237,134.196,65.486,155.262,92.333,158.879z M92.333,39.974c-26.848,3.616-48.097,24.682-51.744,51.299h23.368
		                c3.157-13.99,14.265-25.002,28.376-28.132V39.974z M81.804,99.426c0,10.268,8.396,18.592,18.753,18.592s18.752-8.324,18.752-18.592
		                c0-10.269-8.396-18.592-18.752-18.592S81.804,89.157,81.804,99.426z M108.781,39.974v23.167
		                c14.11,3.13,25.219,14.142,28.375,28.132h23.368C156.877,64.656,135.629,43.589,108.781,39.974z M137.156,107.579
		                c-3.156,13.989-14.265,25.002-28.375,28.131v23.169c26.848-3.617,48.096-24.683,51.743-51.3H137.156z"/>
                </g>
              </svg>