 <svg version="1.1" id="Layer_1" xmlns="http://www.w3.org/2000/svg" xmlns:xlink="http://www.w3.org/1999/xlink" x="0px" y="0px"
	           width="200px" height="200px" viewBox="0 0 200 200" enable-background="new 0 0 200 200" xml:space="preserve">
             <g>
	              <path fill-rule="evenodd" clip-rule="evenodd" fill="#0c6066" stroke="#000000" stroke-miterlimit="10" d="M197.346,80.73
		              c0.821,4.207,1.378,8.509,1.65,12.889c-4.204,1.737-9.589,3.628-16.167,5.673c0.002,0.208,0.009,0.414,0.009,0.623
		              c0,1.773-0.063,3.531-0.173,5.276c6.457,2.416,11.728,4.607,15.829,6.579c-0.516,4.35-1.308,8.614-2.367,12.771
		              c-4.532,0.351-10.237,0.481-17.125,0.39c-0.596,1.888-1.256,3.747-1.979,5.574c5.393,4.296,9.729,8.013,13.018,11.157
		              c-1.825,3.946-3.901,7.755-6.209,11.399c-4.42-1.072-9.887-2.717-16.409-4.939c-1.145,1.603-2.344,3.162-3.598,4.677
		              c3.812,5.762,6.779,10.631,8.94,14.646c-2.938,3.175-6.079,6.159-9.405,8.927c-3.876-2.391-8.558-5.639-14.083-9.777
		              c-1.577,1.17-3.196,2.284-4.858,3.341c1.847,6.656,3.178,12.223,3.997,16.708c-3.756,2.104-7.659,3.974-11.694,5.581
		              c-2.947-3.472-6.405-8.025-10.381-13.67c-1.858,0.62-3.746,1.18-5.66,1.669c-0.295,6.898-0.745,12.6-1.349,17.117
		              c-4.195,0.824-8.484,1.382-12.851,1.655c-1.733-4.217-3.618-9.617-5.658-16.214c-0.207,0.002-0.413,0.009-0.621,0.009
		              c-1.769,0-3.522-0.063-5.263-0.173c-2.407,6.475-4.593,11.762-6.559,15.874c-4.337-0.517-8.589-1.312-12.735-2.373
		              c-0.349-4.546-0.479-10.268-0.387-17.176c-1.883-0.597-3.737-1.259-5.559-1.984c-4.283,5.407-7.989,9.756-11.125,13.056
		              c-3.936-1.832-7.732-3.913-11.367-6.228c1.069-4.433,2.71-9.915,4.926-16.457c-1.598-1.147-3.153-2.351-4.663-3.607
		              c-5.746,3.821-10.601,6.798-14.603,8.966c-3.165-2.947-6.141-6.097-8.901-9.433c2.384-3.887,5.621-8.583,9.749-14.124
		              c-1.166-1.582-2.278-3.206-3.333-4.872c-6.636,1.852-12.186,3.187-16.658,4.008c-2.098-3.767-3.962-7.68-5.564-11.728
		              c3.461-2.956,8-6.424,13.629-10.412c-0.619-1.863-1.176-3.757-1.664-5.677c-6.878-0.297-12.563-0.746-17.068-1.352
		              c-0.82-4.207-1.375-8.51-1.649-12.889c4.204-1.738,9.589-3.629,16.167-5.674c-0.001-0.208-0.008-0.414-0.008-0.622
		              c0-1.774,0.063-3.532,0.171-5.278c-6.455-2.414-11.728-4.606-15.829-6.578c0.517-4.349,1.308-8.614,2.366-12.772
		              c4.533-0.35,10.238-0.48,17.126-0.388c0.596-1.888,1.255-3.749,1.979-5.575c-5.393-4.295-9.729-8.013-13.019-11.157
		              c1.827-3.947,3.901-7.754,6.209-11.4c4.42,1.072,9.886,2.718,16.409,4.94c1.145-1.603,2.344-3.163,3.597-4.677
		              c-3.81-5.762-6.777-10.63-8.939-14.645c2.938-3.174,6.079-6.159,9.406-8.927c3.875,2.391,8.558,5.637,14.082,9.777
		              c1.577-1.169,3.197-2.284,4.858-3.341c-1.846-6.656-3.177-12.222-3.996-16.707c3.754-2.104,7.657-3.973,11.693-5.581
		              c2.947,3.472,6.406,8.024,10.381,13.669c1.859-0.622,3.746-1.18,5.662-1.669c0.294-6.898,0.744-12.6,1.347-17.118
	                c4.195-0.823,8.484-1.38,12.852-1.654c1.732,4.216,3.618,9.617,5.657,16.214c0.207-0.001,0.413-0.008,0.621-0.008
		              c1.769,0,3.521,0.063,5.262,0.172c2.408-6.474,4.594-11.762,6.56-15.875c4.337,0.518,8.589,1.312,12.734,2.373
		              c0.35,4.546,0.48,10.268,0.389,17.176c1.882,0.598,3.736,1.259,5.559,1.985c4.282-5.408,7.989-9.757,11.125-13.057
		              c3.935,1.832,7.731,3.913,11.365,6.228c-1.068,4.433-2.709,9.915-4.925,16.457c1.598,1.148,3.153,2.351,4.663,3.607
		              c5.745-3.821,10.6-6.797,14.604-8.965c3.166,2.947,6.141,6.097,8.9,9.434c-2.384,3.886-5.622,8.583-9.749,14.123
		              c1.167,1.582,2.278,3.207,3.331,4.872c6.638-1.852,12.188-3.186,16.66-4.007c2.098,3.766,3.962,7.68,5.564,11.728
		              c-3.462,2.956-8.002,6.424-13.631,10.411c0.619,1.864,1.177,3.757,1.665,5.678C187.156,79.674,192.842,80.125,197.346,80.73z
		              M95.865,110.992c5.896,1.943,12.246-1.273,14.184-7.187c1.939-5.913-1.269-12.281-7.164-14.226
		              c-5.896-1.944-12.247,1.273-14.185,7.186C86.761,102.679,89.969,109.048,95.865,110.992z M73.831,104.912
		              C69.263,82.979,56.695,67.056,45.76,69.347c-10.935,2.291-16.096,21.928-11.528,43.861c4.569,21.934,17.137,37.856,28.072,35.566
		              C73.239,146.482,78.399,126.845,73.831,104.912z M119.943,37.55c-21.225-7-41.259-4.045-44.748,6.598
		              C71.706,54.79,86.083,69.092,107.308,76.09c21.223,6.999,41.257,4.045,44.747-6.598C155.543,58.85,141.166,44.548,119.943,37.55z
		              M161.114,108.826c-7.445-8.352-26.983-3.016-43.64,11.919c-16.655,14.935-24.122,33.813-16.676,42.164
		              c7.447,8.353,26.984,3.017,43.639-11.918C161.093,136.056,168.56,117.179,161.114,108.826z"/>
                </g>
              </svg>