<svg version="1.1" id="Gr_1" xmlns="http://www.w3.org/2000/svg" xmlns:xlink="http://www.w3.org/1999/xlink" x="0px" y="0px"
              width="250px" height="250px" viewBox="0 0 250 250" enable-background="new 0 0 250 250" xml:space="preserve">
        <g>
            <path id="gr-path" fill-rule="evenodd" clip-rule="evenodd" fill="#0c6066" stroke="#000000" stroke-miterlimit="10" d="M233.747,124.405
                c0,0.979-0.015,1.956-0.041,2.928c5.77,1.652,11.024,3.226,15.793,4.724c-0.468,7.604-1.629,15.021-3.422,22.193
                c-5.002,0.014-10.491-0.047-16.496-0.187c-0.986,3.427-2.14,6.784-3.449,10.063c4.851,3.504,9.244,6.762,13.206,9.783
                c-3.047,6.908-6.705,13.492-10.919,19.676c-4.71-1.682-9.854-3.599-15.454-5.764c-2.103,2.866-4.344,5.625-6.715,8.27
                c3.35,4.938,6.354,9.487,9.035,13.67c-5.217,5.429-10.929,10.384-17.059,14.808c-3.841-3.17-8.006-6.707-12.514-10.632
                c-2.956,1.981-6.015,3.825-9.168,5.519c1.439,5.771,2.689,11.062,3.761,15.896c-6.726,3.317-13.792,6.059-21.139,8.148
                c-2.516-4.284-5.209-9.021-8.093-14.242c-3.447,0.854-6.959,1.544-10.527,2.064c-0.642,5.907-1.295,11.299-1.96,16.205
                c-4.625,0.512-9.323,0.784-14.087,0.784c-2.892,0-5.759-0.105-8.602-0.296c-0.881-4.871-1.773-10.229-2.677-16.101
                c-3.591-0.364-7.13-0.9-10.609-1.601c-2.647,5.337-5.126,10.186-7.448,14.57c-7.442-1.767-14.626-4.189-21.486-7.207
                c0.856-4.879,1.871-10.219,3.053-16.05c-3.228-1.555-6.365-3.264-9.405-5.114c-4.331,4.118-8.336,7.834-12.033,11.17
                c-6.325-4.157-12.247-8.866-17.694-14.06c2.491-4.295,5.29-8.97,8.416-14.047c-2.486-2.54-4.848-5.198-7.074-7.97
                c-5.497,2.405-10.547,4.544-15.176,6.429c-4.489-6.002-8.441-12.418-11.791-19.18c3.825-3.191,8.07-6.637,12.762-10.351
                c-1.456-3.22-2.757-6.522-3.895-9.899c-5.995,0.4-11.478,0.7-16.478,0.904c-2.115-7.096-3.61-14.454-4.412-22.019
                c4.7-1.707,9.884-3.508,15.58-5.411c-0.18-2.536-0.277-5.095-0.277-7.676c0-0.979,0.015-1.956,0.041-2.929
                c-5.771-1.651-11.025-3.225-15.794-4.724c0.469-7.604,1.629-15.021,3.422-22.193c5.002-0.013,10.492,0.047,16.496,0.187
                c0.986-3.427,2.14-6.783,3.45-10.063c-4.851-3.505-9.245-6.761-13.207-9.783c3.047-6.909,6.705-13.493,10.919-19.676
                c4.71,1.682,9.853,3.599,15.454,5.764c2.103-2.866,4.344-5.625,6.714-8.269c-3.35-4.938-6.354-9.488-9.035-13.671
                c5.216-5.429,10.929-10.384,17.059-14.808c3.84,3.171,8.005,6.708,12.513,10.632c2.956-1.982,6.015-3.826,9.168-5.519
                c-1.44-5.771-2.69-11.061-3.762-15.896c6.726-3.318,13.792-6.058,21.139-8.147c2.515,4.283,5.209,9.021,8.093,14.241
                c3.447-0.852,6.959-1.543,10.527-2.063c0.642-5.908,1.295-11.3,1.959-16.205c4.625-0.513,9.324-0.785,14.087-0.785
                c2.892,0,5.759,0.106,8.602,0.297c0.882,4.87,1.774,10.228,2.678,16.1c3.591,0.365,7.13,0.901,10.608,1.601
                c2.647-5.337,5.127-10.185,7.448-14.571c7.442,1.768,14.626,4.19,21.485,7.207c-0.855,4.879-1.87,10.22-3.052,16.05
                c3.228,1.555,6.365,3.264,9.405,5.114c4.331-4.118,8.336-7.834,12.032-11.169c6.325,4.157,12.247,8.865,17.694,14.059
                c-2.491,4.295-5.291,8.97-8.416,14.047c2.485,2.54,4.847,5.199,7.073,7.969c5.497-2.406,10.547-4.543,15.176-6.428
                c4.489,6,8.441,12.417,11.791,19.179c-3.824,3.192-8.07,6.638-12.762,10.351c1.456,3.219,2.757,6.522,3.895,9.899
                c5.995-0.4,11.479-0.7,16.479-0.905c2.115,7.097,3.609,14.456,4.412,22.019c-4.7,1.707-9.884,3.508-15.58,5.411
                C233.649,119.265,233.747,121.823,233.747,124.405z M140.377,212.939c5.082,2.903,11.58,1.18,14.515-3.847
                c2.934-5.028,1.192-11.457-3.89-14.359c-5.082-2.903-11.58-1.18-14.514,3.848C133.554,203.608,135.295,210.037,140.377,212.939z
                M80.297,200.149c14.095,8.051,32.118,3.272,40.255-10.671c8.138-13.944,3.309-31.775-10.786-39.825s-32.117-3.273-40.255,10.67
                C61.373,174.269,66.203,192.099,80.297,200.149z M34.627,139.894c-2.934,5.028-1.193,11.458,3.889,14.359
                c5.082,2.902,11.58,1.181,14.514-3.848c2.934-5.027,1.193-11.456-3.889-14.359C44.059,133.144,37.561,134.866,34.627,139.894z
                M88.193,70.002c-14.094-8.05-32.117-3.273-40.255,10.671c-8.137,13.944-3.308,31.774,10.787,39.825
                c14.095,8.051,32.117,3.272,40.255-10.671C107.117,95.883,102.288,78.053,88.193,70.002z M107.857,35.433
                c-5.082-2.903-11.58-1.18-14.514,3.847c-2.934,5.028-1.193,11.457,3.889,14.359c5.082,2.902,11.58,1.18,14.514-3.848
                C114.68,44.764,112.939,38.335,107.857,35.433z M113.672,118.22c-3.452,5.916-1.403,13.48,4.576,16.897
                c5.98,3.415,13.626,1.388,17.079-4.527c3.453-5.917,1.404-13.481-4.576-16.897C124.771,110.277,117.125,112.304,113.672,118.22z
                M168.703,48.66c-14.095-8.051-32.117-3.273-40.255,10.671s-3.309,31.774,10.786,39.825c14.095,8.05,32.117,3.273,40.255-10.671
                C187.627,74.542,182.798,56.711,168.703,48.66z M190.275,128.311c-14.095-8.051-32.117-3.272-40.255,10.672
                c-8.138,13.943-3.309,31.774,10.786,39.824c14.095,8.051,32.117,3.273,40.255-10.671S204.37,136.361,190.275,128.311z
                M209.939,93.74c-5.082-2.902-11.58-1.18-14.514,3.848c-2.935,5.028-1.193,11.457,3.889,14.359s11.58,1.18,14.514-3.848
                C216.763,103.072,215.021,96.644,209.939,93.74z"/>
        </g>
    </svg>
