<?xml version="1.0" encoding="UTF-8"?>
<svg xmlns="http://www.w3.org/2000/svg" xmlns:xlink="http://www.w3.org/1999/xlink" width="36pt" height="36pt" viewBox="0 0 36 36" version="1.1">
<g id="surface1">
<path style=" stroke:none;fill-rule:nonzero;fill:rgb(27.45098%,58.431373%,99.215686%);fill-opacity:1;" d="M 12.773438 0.527344 L 7.246094 0.527344 C 6.511719 0.527344 5.917969 1.121094 5.917969 1.855469 L 5.917969 13.6875 C 5.917969 14.449219 6.222656 15.183594 6.761719 15.722656 L 10.675781 19.636719 L 12.773438 19.636719 L 18 8.917969 Z M 12.773438 0.527344 "/>
<path style=" stroke:none;fill-rule:nonzero;fill:rgb(27.45098%,58.431373%,99.215686%);fill-opacity:1;" d="M 28.753906 0.527344 L 23.226562 0.527344 L 18 8.917969 L 23.226562 19.636719 L 25.324219 19.636719 L 29.238281 15.722656 C 29.777344 15.183594 30.082031 14.449219 30.082031 13.6875 L 30.082031 1.855469 C 30.082031 1.121094 29.488281 0.527344 28.753906 0.527344 Z M 28.753906 0.527344 "/>
<path style=" stroke:none;fill-rule:nonzero;fill:rgb(5.098039%,51.764706%,99.215686%);fill-opacity:1;" d="M 7.945312 16.90625 L 10.675781 19.636719 L 12.773438 19.636719 L 16.449219 12.101562 C 13.007812 12.519531 9.984375 14.308594 7.945312 16.90625 Z M 7.945312 16.90625 "/>
<path style=" stroke:none;fill-rule:nonzero;fill:rgb(5.098039%,51.764706%,99.215686%);fill-opacity:1;" d="M 19.550781 12.101562 L 23.226562 19.636719 L 25.324219 19.636719 L 28.054688 16.90625 C 26.015625 14.308594 22.992188 12.519531 19.550781 12.101562 Z M 19.550781 12.101562 "/>
<path style=" stroke:none;fill-rule:nonzero;fill:rgb(100%,53.72549%,79.215686%);fill-opacity:1;" d="M 12.773438 0.527344 L 23.226562 0.527344 L 23.226562 19.636719 L 12.773438 19.636719 Z M 12.773438 0.527344 "/>
<path style=" stroke:none;fill-rule:nonzero;fill:rgb(98.039216%,29.019608%,67.843137%);fill-opacity:1;" d="M 23.226562 13.125 C 21.628906 12.40625 19.859375 12.007812 18 12.007812 C 16.140625 12.007812 14.371094 12.40625 12.773438 13.125 L 12.773438 19.636719 L 23.226562 19.636719 Z M 23.226562 13.125 "/>
<path style=" stroke:none;fill-rule:nonzero;fill:rgb(64.313725%,74.901961%,83.921569%);fill-opacity:1;" d="M 28.675781 24.796875 C 28.675781 30.691406 23.898438 35.472656 18 35.472656 C 12.101562 35.472656 7.324219 30.691406 7.324219 24.796875 C 7.324219 18.898438 12.101562 14.117188 18 14.117188 C 23.898438 14.117188 28.675781 18.898438 28.675781 24.796875 Z M 28.675781 24.796875 "/>
<path style=" stroke:none;fill-rule:nonzero;fill:rgb(82.745098%,91.372549%,95.686275%);fill-opacity:1;" d="M 25.695312 24.796875 C 25.695312 29.046875 22.25 32.492188 18 32.492188 C 13.75 32.492188 10.304688 29.046875 10.304688 24.796875 C 10.304688 20.542969 13.75 17.097656 18 17.097656 C 22.25 17.097656 25.695312 20.542969 25.695312 24.796875 Z M 25.695312 24.796875 "/>
<path style=" stroke:none;fill-rule:nonzero;fill:rgb(64.313725%,74.901961%,83.921569%);fill-opacity:1;" d="M 18.03125 19.726562 C 19.554688 19.726562 21.085938 20.683594 21.085938 22.441406 C 21.085938 25.285156 17.035156 26.214844 17.035156 27.40625 L 17.035156 27.523438 L 20.46875 27.523438 C 20.796875 27.523438 21.085938 27.929688 21.085938 28.402344 C 21.085938 28.875 20.796875 29.308594 20.46875 29.308594 L 15.804688 29.308594 C 15.4375 29.308594 14.914062 29.058594 14.914062 28.679688 L 14.914062 27.40625 C 14.914062 25.351562 19.042969 24.171875 19.042969 22.507812 C 19.042969 22.085938 18.78125 21.574219 18.046875 21.574219 C 17.523438 21.574219 17.0625 21.835938 17.0625 22.558594 C 17.0625 22.9375 16.65625 23.304688 15.988281 23.304688 C 15.464844 23.304688 15.070312 23.070312 15.070312 22.242188 C 15.070312 20.644531 16.539062 19.726562 18.03125 19.726562 Z M 18.03125 19.726562 "/>
<path style=" stroke:none;fill-rule:nonzero;fill:rgb(0%,0%,0%);fill-opacity:1;" d="M 13.144531 19.519531 C 13.359375 19.324219 13.371094 18.988281 13.175781 18.777344 C 12.976562 18.5625 12.644531 18.546875 12.429688 18.746094 C 10.742188 20.296875 9.777344 22.503906 9.777344 24.796875 C 9.777344 29.328125 13.464844 33.019531 18 33.019531 C 22.535156 33.019531 26.222656 29.328125 26.222656 24.796875 C 26.222656 20.261719 22.535156 16.570312 18 16.570312 C 16.632812 16.570312 15.277344 16.914062 14.082031 17.5625 C 13.828125 17.703125 13.730469 18.023438 13.871094 18.277344 C 14.011719 18.535156 14.328125 18.628906 14.585938 18.488281 C 15.625 17.925781 16.808594 17.625 18 17.625 C 21.953125 17.625 25.167969 20.84375 25.167969 24.796875 C 25.167969 28.746094 21.953125 31.964844 18 31.964844 C 14.046875 31.964844 10.832031 28.746094 10.832031 24.796875 C 10.832031 22.796875 11.675781 20.875 13.144531 19.519531 Z M 13.144531 19.519531 "/>
<path style=" stroke:none;fill-rule:nonzero;fill:rgb(0%,0%,0%);fill-opacity:1;" d="M 16.828125 24.265625 C 15.683594 25.105469 14.386719 26.058594 14.386719 27.40625 L 14.386719 28.679688 C 14.386719 29.035156 14.589844 29.363281 14.945312 29.582031 C 15.199219 29.742188 15.519531 29.835938 15.804688 29.835938 L 20.46875 29.835938 C 21.089844 29.835938 21.613281 29.179688 21.613281 28.402344 C 21.613281 27.628906 21.101562 26.996094 20.46875 26.996094 L 17.929688 26.996094 C 18.175781 26.796875 18.5 26.574219 18.71875 26.425781 C 19.941406 25.589844 21.613281 24.445312 21.613281 22.441406 C 21.613281 20.335938 19.769531 19.199219 18.03125 19.199219 C 17.148438 19.199219 16.308594 19.472656 15.667969 19.96875 C 14.941406 20.53125 14.542969 21.339844 14.542969 22.246094 C 14.542969 23.253906 15.070312 23.832031 15.988281 23.832031 C 17.027344 23.832031 17.589844 23.175781 17.589844 22.558594 C 17.589844 22.175781 17.757812 22.101562 18.046875 22.101562 C 18.355469 22.101562 18.515625 22.238281 18.515625 22.507812 C 18.515625 23.027344 17.621094 23.683594 16.828125 24.265625 Z M 18.046875 21.046875 C 17.128906 21.046875 16.535156 21.640625 16.535156 22.558594 C 16.535156 22.597656 16.394531 22.777344 15.988281 22.777344 C 15.890625 22.777344 15.761719 22.765625 15.703125 22.710938 C 15.636719 22.644531 15.597656 22.46875 15.597656 22.242188 C 15.597656 20.953125 16.851562 20.253906 18.03125 20.253906 C 19.289062 20.253906 20.558594 21.007812 20.558594 22.441406 C 20.558594 23.886719 19.265625 24.773438 18.125 25.554688 C 17.257812 26.148438 16.507812 26.660156 16.507812 27.40625 L 16.507812 27.523438 C 16.507812 27.816406 16.746094 28.050781 17.035156 28.050781 L 20.4375 28.050781 C 20.480469 28.089844 20.558594 28.21875 20.558594 28.402344 C 20.558594 28.59375 20.476562 28.734375 20.429688 28.78125 L 15.804688 28.78125 C 15.667969 28.78125 15.496094 28.699219 15.441406 28.644531 L 15.441406 27.40625 C 15.441406 26.589844 16.464844 25.839844 17.453125 25.113281 C 18.542969 24.316406 19.570312 23.5625 19.570312 22.507812 C 19.570312 21.804688 19.09375 21.046875 18.046875 21.046875 Z M 18.046875 21.046875 "/>
<path style=" stroke:none;fill-rule:nonzero;fill:rgb(0%,0%,0%);fill-opacity:1;" d="M 28.753906 0 L 7.246094 0 C 6.222656 0 5.390625 0.832031 5.390625 1.855469 L 5.390625 13.6875 C 5.390625 14.597656 5.746094 15.453125 6.390625 16.097656 L 8.757812 18.464844 C 7.519531 20.269531 6.792969 22.449219 6.792969 24.792969 C 6.796875 30.972656 11.820312 36 18 36 C 20.4375 36 22.757812 35.230469 24.707031 33.773438 C 24.941406 33.597656 24.988281 33.265625 24.8125 33.035156 C 24.636719 32.800781 24.308594 32.753906 24.074219 32.929688 C 22.308594 34.246094 20.210938 34.945312 18 34.945312 C 12.402344 34.945312 7.851562 30.390625 7.851562 24.796875 C 7.851562 20.511719 10.515625 16.839844 14.277344 15.351562 C 15.449219 14.886719 16.730469 14.644531 18 14.644531 C 19.261719 14.644531 20.539062 14.886719 21.722656 15.351562 C 25.484375 16.839844 28.148438 20.511719 28.148438 24.796875 C 28.148438 27.300781 27.226562 29.710938 25.554688 31.574219 C 25.359375 31.789062 25.378906 32.125 25.59375 32.316406 C 25.8125 32.511719 26.144531 32.496094 26.339844 32.277344 C 28.1875 30.21875 29.203125 27.5625 29.203125 24.796875 C 29.203125 22.449219 28.480469 20.269531 27.242188 18.464844 L 29.609375 16.097656 C 30.253906 15.453125 30.609375 14.597656 30.609375 13.6875 L 30.609375 1.855469 C 30.609375 0.832031 29.777344 0 28.753906 0 Z M 22.699219 14.621094 C 21.230469 13.945312 19.617188 13.589844 18 13.589844 C 16.386719 13.589844 14.769531 13.945312 13.300781 14.621094 L 13.300781 1.054688 L 22.699219 1.054688 Z M 6.445312 13.6875 L 6.445312 1.855469 C 6.445312 1.414062 6.804688 1.054688 7.246094 1.054688 L 12.246094 1.054688 L 12.246094 15.179688 C 11.160156 15.828125 10.207031 16.644531 9.398438 17.613281 L 7.136719 15.351562 C 6.695312 14.914062 6.445312 14.304688 6.445312 13.6875 Z M 29.554688 13.6875 C 29.554688 14.316406 29.308594 14.90625 28.863281 15.351562 L 26.601562 17.613281 C 25.792969 16.644531 24.839844 15.828125 23.753906 15.179688 L 23.753906 1.054688 L 28.753906 1.054688 C 29.195312 1.054688 29.554688 1.414062 29.554688 1.855469 Z M 29.554688 13.6875 "/>
</g>
</svg>
