<?xml version="1.0" encoding="UTF-8"?>
<svg xmlns="http://www.w3.org/2000/svg" xmlns:xlink="http://www.w3.org/1999/xlink" width="36pt" height="36pt" viewBox="0 0 36 36" version="1.1">
<g id="surface1">
<path style=" stroke:none;fill-rule:nonzero;fill:rgb(91.764706%,91.764706%,92.54902%);fill-opacity:1;" d="M 10.023438 0.527344 L 15.332031 8.613281 L 17.40625 16.695312 L 14.175781 16.695312 L 8.867188 8.613281 L 6.792969 0.527344 Z M 10.023438 0.527344 "/>
<path style=" stroke:none;fill-rule:nonzero;fill:rgb(84.705882%,84.705882%,85.490196%);fill-opacity:1;" d="M 14.175781 16.695312 L 17.40625 16.695312 L 16.101562 11.613281 C 14.558594 11.839844 13.101562 12.335938 11.785156 13.054688 Z M 14.175781 16.695312 "/>
<path style=" stroke:none;fill-rule:nonzero;fill:rgb(99.215686%,36.078431%,43.529412%);fill-opacity:1;" d="M 10.023438 0.527344 L 17.40625 16.695312 L 20.636719 16.695312 L 13.253906 0.527344 Z M 10.023438 0.527344 "/>
<path style=" stroke:none;fill-rule:nonzero;fill:rgb(99.215686%,36.078431%,43.529412%);fill-opacity:1;" d="M 3.5625 0.527344 L 10.945312 16.695312 L 14.175781 16.695312 L 6.792969 0.527344 Z M 3.5625 0.527344 "/>
<path style=" stroke:none;fill-rule:nonzero;fill:rgb(91.764706%,91.764706%,92.54902%);fill-opacity:1;" d="M 25.976562 0.527344 L 20.667969 8.613281 L 18.59375 16.695312 L 21.824219 16.695312 L 27.132812 8.613281 L 29.207031 0.527344 Z M 25.976562 0.527344 "/>
<path style=" stroke:none;fill-rule:nonzero;fill:rgb(84.705882%,84.705882%,85.490196%);fill-opacity:1;" d="M 19.898438 11.613281 L 18.59375 16.695312 L 21.824219 16.695312 L 24.214844 13.054688 C 22.898438 12.335938 21.441406 11.839844 19.898438 11.613281 Z M 19.898438 11.613281 "/>
<path style=" stroke:none;fill-rule:nonzero;fill:rgb(91.372549%,15.294118%,25.098039%);fill-opacity:1;" d="M 15.164062 11.789062 L 17.40625 16.695312 L 20.636719 16.695312 L 18.253906 11.480469 C 18.171875 11.476562 18.085938 11.476562 18 11.476562 C 17.027344 11.476562 16.078125 11.585938 15.164062 11.789062 Z M 15.164062 11.789062 "/>
<path style=" stroke:none;fill-rule:nonzero;fill:rgb(91.372549%,15.294118%,25.098039%);fill-opacity:1;" d="M 10.945312 16.695312 L 14.175781 16.695312 L 12.375 12.753906 C 11.476562 13.183594 10.636719 13.714844 9.863281 14.332031 Z M 10.945312 16.695312 "/>
<path style=" stroke:none;fill-rule:nonzero;fill:rgb(27.45098%,58.431373%,99.215686%);fill-opacity:1;" d="M 25.976562 0.527344 L 18.59375 16.695312 L 15.363281 16.695312 L 22.746094 0.527344 Z M 25.976562 0.527344 "/>
<path style=" stroke:none;fill-rule:nonzero;fill:rgb(27.45098%,58.431373%,99.215686%);fill-opacity:1;" d="M 32.4375 0.527344 L 25.054688 16.695312 L 21.824219 16.695312 L 29.207031 0.527344 Z M 32.4375 0.527344 "/>
<path style=" stroke:none;fill-rule:nonzero;fill:rgb(5.098039%,51.764706%,99.215686%);fill-opacity:1;" d="M 20.835938 11.789062 C 19.921875 11.585938 18.972656 11.476562 18 11.476562 C 17.914062 11.476562 17.828125 11.476562 17.746094 11.480469 L 15.363281 16.695312 L 18.59375 16.695312 Z M 20.835938 11.789062 "/>
<path style=" stroke:none;fill-rule:nonzero;fill:rgb(5.098039%,51.764706%,99.215686%);fill-opacity:1;" d="M 23.625 12.753906 L 21.824219 16.695312 L 25.054688 16.695312 L 26.136719 14.332031 C 25.363281 13.714844 24.523438 13.183594 23.625 12.753906 Z M 23.625 12.753906 "/>
<path style=" stroke:none;fill-rule:nonzero;fill:rgb(99.215686%,69.019608%,34.509804%);fill-opacity:1;" d="M 28.945312 24.527344 C 28.945312 30.574219 24.042969 35.472656 18 35.472656 C 11.957031 35.472656 7.054688 30.574219 7.054688 24.527344 C 7.054688 18.484375 11.957031 13.585938 18 13.585938 C 24.042969 13.585938 28.945312 18.484375 28.945312 24.527344 Z M 28.945312 24.527344 "/>
<path style=" stroke:none;fill-rule:nonzero;fill:rgb(99.215686%,89.411765%,45.882353%);fill-opacity:1;" d="M 26.324219 24.527344 C 26.324219 29.125 22.597656 32.855469 18 32.855469 C 13.402344 32.855469 9.675781 29.125 9.675781 24.527344 C 9.675781 19.933594 13.402344 16.203125 18 16.203125 C 22.597656 16.203125 26.324219 19.933594 26.324219 24.527344 Z M 26.324219 24.527344 "/>
<path style=" stroke:none;fill-rule:nonzero;fill:rgb(99.215686%,69.019608%,34.509804%);fill-opacity:1;" d="M 17.363281 21.8125 L 16.949219 22.070312 C 16.820312 22.15625 16.695312 22.183594 16.59375 22.183594 C 16.179688 22.183594 15.894531 21.742188 15.894531 21.300781 C 15.894531 21 16.023438 20.714844 16.308594 20.542969 L 18.191406 19.402344 C 18.304688 19.332031 18.449219 19.304688 18.605469 19.304688 C 19.0625 19.304688 19.589844 19.574219 19.589844 20 L 19.589844 29.070312 C 19.589844 29.527344 19.03125 29.753906 18.476562 29.753906 C 17.921875 29.753906 17.363281 29.527344 17.363281 29.070312 Z M 17.363281 21.8125 "/>
<path style=" stroke:none;fill-rule:nonzero;fill:rgb(0%,0%,0%);fill-opacity:1;" d="M 18 15.675781 C 13.117188 15.675781 9.148438 19.648438 9.148438 24.53125 C 9.148438 29.410156 13.117188 33.382812 18 33.382812 C 22.878906 33.382812 26.851562 29.410156 26.851562 24.53125 C 26.851562 19.648438 22.878906 15.675781 18 15.675781 Z M 18 32.328125 C 13.699219 32.328125 10.203125 28.828125 10.203125 24.527344 C 10.203125 20.230469 13.699219 16.730469 18 16.730469 C 22.300781 16.730469 25.796875 20.230469 25.796875 24.527344 C 25.796875 28.828125 22.300781 32.328125 18 32.328125 Z M 18 32.328125 "/>
<path style=" stroke:none;fill-rule:nonzero;fill:rgb(0%,0%,0%);fill-opacity:1;" d="M 18.605469 18.777344 C 18.335938 18.777344 18.105469 18.835938 17.914062 18.953125 L 16.035156 20.089844 C 15.609375 20.347656 15.367188 20.785156 15.367188 21.300781 C 15.367188 22.078125 15.917969 22.710938 16.59375 22.710938 C 16.660156 22.710938 16.742188 22.703125 16.835938 22.683594 L 16.835938 29.070312 C 16.835938 29.785156 17.511719 30.28125 18.476562 30.28125 C 19.441406 30.28125 20.117188 29.785156 20.117188 29.070312 L 20.117188 20 C 20.117188 19.246094 19.332031 18.777344 18.605469 18.777344 Z M 19.0625 29.066406 C 19.023438 29.117188 18.816406 29.226562 18.476562 29.226562 C 18.136719 29.226562 17.925781 29.117188 17.890625 29.066406 C 17.890625 29.066406 17.890625 21.820312 17.890625 21.8125 C 17.890625 21.40625 17.429688 21.152344 17.085938 21.363281 L 16.671875 21.621094 C 16.667969 21.625 16.660156 21.628906 16.65625 21.628906 C 16.621094 21.65625 16.59375 21.65625 16.59375 21.65625 C 16.542969 21.65625 16.421875 21.503906 16.421875 21.300781 C 16.421875 21.089844 16.539062 21.019531 16.582031 20.996094 L 18.464844 19.855469 C 18.464844 19.851562 18.46875 19.851562 18.46875 19.851562 C 18.480469 19.84375 18.519531 19.832031 18.605469 19.832031 C 18.839844 19.832031 19.03125 19.949219 19.0625 20.007812 Z M 19.0625 29.066406 "/>
<path style=" stroke:none;fill-rule:nonzero;fill:rgb(0%,0%,0%);fill-opacity:1;" d="M 32.882812 0.242188 C 32.785156 0.0898438 32.617188 0 32.4375 0 L 22.746094 0 C 22.539062 0 22.351562 0.121094 22.265625 0.308594 L 18 9.648438 L 13.734375 0.308594 C 13.648438 0.121094 13.460938 0 13.253906 0 C 13.253906 0 3.574219 0 3.5625 0 C 3.183594 0 2.925781 0.402344 3.082031 0.746094 L 10.132812 16.1875 C 7.914062 18.28125 6.527344 21.246094 6.527344 24.527344 C 6.527344 30.855469 11.675781 36 18 36 C 20.683594 36 23.296875 35.050781 25.355469 33.332031 C 25.578125 33.144531 25.609375 32.8125 25.421875 32.589844 C 25.234375 32.363281 24.902344 32.335938 24.679688 32.523438 C 22.808594 34.085938 20.4375 34.945312 18 34.945312 C 12.257812 34.945312 7.582031 30.273438 7.582031 24.527344 C 7.582031 19.601562 11.019531 15.464844 15.621094 14.386719 C 17.179688 14.023438 18.820312 14.023438 20.375 14.386719 C 24.976562 15.464844 28.414062 19.605469 28.414062 24.527344 C 28.414062 26.921875 27.582031 29.261719 26.070312 31.113281 C 25.886719 31.339844 25.917969 31.671875 26.144531 31.855469 C 26.371094 32.039062 26.703125 32.007812 26.886719 31.78125 C 28.554688 29.742188 29.46875 27.167969 29.46875 24.53125 C 29.46875 21.246094 28.082031 18.28125 25.867188 16.1875 L 32.917969 0.746094 C 32.992188 0.582031 32.980469 0.394531 32.882812 0.242188 Z M 22.488281 13.96875 C 21.90625 13.722656 21.304688 13.523438 20.6875 13.375 L 26.316406 1.054688 L 28.386719 1.054688 Z M 23.082031 1.054688 L 25.15625 1.054688 L 19.621094 13.171875 C 18.964844 13.078125 18.292969 13.042969 17.628906 13.066406 C 17.621094 13.066406 17.609375 13.066406 17.597656 13.066406 Z M 17.417969 10.917969 L 16.390625 13.171875 C 16.386719 13.171875 16.382812 13.171875 16.375 13.171875 L 10.84375 1.054688 L 12.914062 1.054688 Z M 6.453125 1.054688 C 6.453125 1.054688 7.996094 4.429688 8.019531 4.457031 C 8.164062 4.65625 8.433594 4.730469 8.664062 4.625 C 8.929688 4.503906 9.046875 4.191406 8.925781 3.925781 L 7.613281 1.054688 L 9.683594 1.054688 L 15.308594 13.375 C 14.695312 13.523438 14.09375 13.722656 13.511719 13.96875 C 13.511719 13.96875 9.796875 5.835938 9.792969 5.828125 C 9.671875 5.570312 9.351562 5.449219 9.09375 5.566406 C 8.828125 5.6875 8.710938 6 8.832031 6.265625 L 12.558594 14.429688 C 12 14.730469 11.464844 15.078125 10.964844 15.46875 L 4.382812 1.054688 Z M 25.035156 15.46875 C 24.53125 15.078125 24 14.730469 23.4375 14.429688 L 29.546875 1.054688 L 31.617188 1.054688 Z M 25.035156 15.46875 "/>
</g>
</svg>
