<?xml version="1.0" encoding="UTF-8"?>
<svg xmlns="http://www.w3.org/2000/svg" xmlns:xlink="http://www.w3.org/1999/xlink" width="36pt" height="36pt" viewBox="0 0 36 36" version="1.1">
<g id="surface1">
<path style=" stroke:none;fill-rule:nonzero;fill:rgb(27.45098%,58.431373%,99.215686%);fill-opacity:1;" d="M 29.386719 0.527344 L 6.613281 0.527344 L 6.613281 10.664062 L 18 11.847656 L 29.386719 10.664062 Z M 29.386719 0.527344 "/>
<path style=" stroke:none;fill-rule:nonzero;fill:rgb(5.098039%,51.764706%,99.215686%);fill-opacity:1;" d="M 6.613281 8.554688 L 6.613281 10.664062 L 18 11.847656 L 29.386719 10.664062 L 29.386719 8.554688 Z M 6.613281 8.554688 "/>
<path style=" stroke:none;fill-rule:nonzero;fill:rgb(46.27451%,90.588235%,90.588235%);fill-opacity:1;" d="M 10.238281 0.527344 L 13.574219 0.527344 L 13.574219 10.664062 L 10.238281 10.664062 Z M 10.238281 0.527344 "/>
<path style=" stroke:none;fill-rule:nonzero;fill:rgb(46.27451%,90.588235%,90.588235%);fill-opacity:1;" d="M 22.425781 0.527344 L 25.761719 0.527344 L 25.761719 10.664062 L 22.425781 10.664062 Z M 22.425781 0.527344 "/>
<path style=" stroke:none;fill-rule:nonzero;fill:rgb(99.215686%,69.019608%,34.509804%);fill-opacity:1;" d="M 16.714844 12.65625 L 19.285156 12.65625 L 19.285156 18.953125 L 16.714844 18.953125 Z M 16.714844 12.65625 "/>
<path style=" stroke:none;fill-rule:nonzero;fill:rgb(98.431373%,52.156863%,32.941176%);fill-opacity:1;" d="M 27.210938 26.261719 C 27.210938 31.347656 23.085938 35.472656 18 35.472656 C 12.914062 35.472656 8.789062 31.347656 8.789062 26.261719 C 8.789062 21.171875 12.914062 17.046875 18 17.046875 C 23.085938 17.046875 27.210938 21.171875 27.210938 26.261719 Z M 27.210938 26.261719 "/>
<path style=" stroke:none;fill-rule:nonzero;fill:rgb(97.647059%,63.921569%,34.117647%);fill-opacity:1;" d="M 24.796875 26.261719 C 24.796875 30.011719 21.753906 33.054688 18 33.054688 C 14.246094 33.054688 11.203125 30.011719 11.203125 26.261719 C 11.203125 22.507812 14.246094 19.464844 18 19.464844 C 21.753906 19.464844 24.796875 22.507812 24.796875 26.261719 Z M 24.796875 26.261719 "/>
<path style=" stroke:none;fill-rule:nonzero;fill:rgb(98.431373%,52.156863%,32.941176%);fill-opacity:1;" d="M 19.085938 27.988281 L 19.085938 27.757812 C 19.085938 26.945312 18.589844 26.789062 17.921875 26.789062 C 17.507812 26.789062 17.375 26.425781 17.375 26.0625 C 17.375 25.695312 17.507812 25.332031 17.921875 25.332031 C 18.382812 25.332031 18.867188 25.273438 18.867188 24.289062 C 18.867188 23.585938 18.46875 23.417969 17.96875 23.417969 C 17.375 23.417969 17.074219 23.5625 17.074219 24.035156 C 17.074219 24.449219 16.890625 24.726562 16.1875 24.726562 C 15.3125 24.726562 15.203125 24.542969 15.203125 23.960938 C 15.203125 23.015625 15.882812 21.792969 17.96875 21.792969 C 19.507812 21.792969 20.675781 22.351562 20.675781 23.988281 C 20.675781 24.871094 20.347656 25.695312 19.738281 25.976562 C 20.457031 26.242188 20.976562 26.777344 20.976562 27.757812 L 20.976562 27.988281 C 20.976562 29.976562 19.605469 30.730469 17.910156 30.730469 C 15.824219 30.730469 15.023438 29.457031 15.023438 28.4375 C 15.023438 27.890625 15.253906 27.746094 15.921875 27.746094 C 16.695312 27.746094 16.890625 27.914062 16.890625 28.375 C 16.890625 28.945312 17.425781 29.078125 17.96875 29.078125 C 18.792969 29.078125 19.085938 28.777344 19.085938 27.988281 Z M 19.085938 27.988281 "/>
<path style=" stroke:none;fill-rule:nonzero;fill:rgb(20.392157%,73.72549%,81.176471%);fill-opacity:1;" d="M 22.425781 8.554688 L 25.761719 8.554688 L 25.761719 10.664062 L 22.425781 10.664062 Z M 22.425781 8.554688 "/>
<path style=" stroke:none;fill-rule:nonzero;fill:rgb(20.392157%,73.72549%,81.176471%);fill-opacity:1;" d="M 10.238281 8.554688 L 13.574219 8.554688 L 13.574219 10.664062 L 10.238281 10.664062 Z M 10.238281 8.554688 "/>
<path style=" stroke:none;fill-rule:nonzero;fill:rgb(97.647059%,63.921569%,34.117647%);fill-opacity:1;" d="M 29.386719 10.664062 L 6.613281 10.664062 C 5.5625 10.664062 4.710938 11.515625 4.710938 12.566406 C 4.710938 13.617188 5.5625 14.472656 6.613281 14.472656 L 29.386719 14.472656 C 30.4375 14.472656 31.289062 13.617188 31.289062 12.566406 C 31.289062 11.515625 30.4375 10.664062 29.386719 10.664062 Z M 29.386719 10.664062 "/>
<path style=" stroke:none;fill-rule:nonzero;fill:rgb(0%,0%,0%);fill-opacity:1;" d="M 18 18.9375 C 13.960938 18.9375 10.675781 22.222656 10.675781 26.261719 C 10.675781 30.296875 13.960938 33.582031 18 33.582031 C 22.039062 33.582031 25.324219 30.296875 25.324219 26.261719 C 25.324219 22.222656 22.039062 18.9375 18 18.9375 Z M 18 32.527344 C 14.542969 32.527344 11.730469 29.714844 11.730469 26.261719 C 11.730469 22.804688 14.542969 19.992188 18 19.992188 C 21.457031 19.992188 24.269531 22.804688 24.269531 26.261719 C 24.269531 29.714844 21.457031 32.527344 18 32.527344 Z M 18 32.527344 "/>
<path style=" stroke:none;fill-rule:nonzero;fill:rgb(0%,0%,0%);fill-opacity:1;" d="M 20.652344 25.878906 C 21 25.410156 21.203125 24.746094 21.203125 23.988281 C 21.203125 22.96875 20.78125 21.265625 17.96875 21.265625 C 15.695312 21.265625 14.675781 22.621094 14.675781 23.960938 C 14.675781 24.761719 14.929688 25.253906 16.1875 25.253906 C 17.417969 25.253906 17.601562 24.492188 17.601562 24.035156 C 17.601562 24.011719 17.601562 23.996094 17.601562 23.984375 C 17.640625 23.96875 17.742188 23.945312 17.96875 23.945312 C 18.292969 23.945312 18.339844 23.988281 18.339844 24.289062 C 18.339844 24.605469 18.277344 24.738281 18.246094 24.761719 C 18.1875 24.804688 17.988281 24.804688 17.921875 24.804688 C 17.28125 24.804688 16.847656 25.308594 16.847656 26.0625 C 16.847656 26.8125 17.28125 27.316406 17.921875 27.316406 C 18.558594 27.316406 18.558594 27.453125 18.558594 27.757812 L 18.558594 27.988281 C 18.558594 28.328125 18.492188 28.429688 18.464844 28.457031 C 18.4375 28.484375 18.328125 28.550781 17.96875 28.550781 C 17.664062 28.550781 17.523438 28.503906 17.46875 28.472656 C 17.425781 28.453125 17.417969 28.449219 17.417969 28.375 C 17.417969 27.21875 16.367188 27.21875 15.921875 27.21875 C 15.53125 27.21875 14.496094 27.21875 14.496094 28.4375 C 14.496094 29.796875 15.5625 31.257812 17.910156 31.257812 C 20.160156 31.257812 21.503906 30.035156 21.503906 27.988281 L 21.503906 27.757812 C 21.503906 26.953125 21.210938 26.3125 20.652344 25.878906 Z M 20.449219 27.988281 C 20.449219 29.457031 19.59375 30.203125 17.910156 30.203125 C 16.046875 30.203125 15.550781 29.09375 15.550781 28.4375 C 15.550781 28.371094 15.554688 28.328125 15.558594 28.304688 C 15.605469 28.292969 15.707031 28.273438 15.921875 28.273438 C 16.179688 28.273438 16.304688 28.296875 16.359375 28.3125 C 16.363281 28.328125 16.363281 28.347656 16.363281 28.375 C 16.363281 28.746094 16.519531 29.605469 17.96875 29.605469 C 19.074219 29.605469 19.613281 29.078125 19.613281 27.988281 L 19.613281 27.757812 C 19.613281 26.769531 19.046875 26.265625 17.929688 26.261719 C 17.917969 26.226562 17.902344 26.164062 17.902344 26.0625 C 17.902344 25.957031 17.917969 25.894531 17.929688 25.859375 C 18.304688 25.859375 19.394531 25.847656 19.394531 24.289062 C 19.394531 23.398438 18.875 22.890625 17.96875 22.890625 C 16.792969 22.890625 16.546875 23.511719 16.546875 24.035156 C 16.546875 24.101562 16.539062 24.136719 16.535156 24.148438 C 16.511719 24.160156 16.421875 24.199219 16.1875 24.199219 C 15.925781 24.199219 15.800781 24.179688 15.742188 24.167969 C 15.738281 24.128906 15.730469 24.066406 15.730469 23.960938 C 15.730469 23.6875 15.839844 22.320312 17.96875 22.320312 C 18.984375 22.320312 20.148438 22.507812 20.148438 23.988281 C 20.148438 24.707031 19.890625 25.328125 19.519531 25.496094 C 19.324219 25.585938 19.207031 25.78125 19.214844 25.996094 C 19.222656 26.207031 19.355469 26.394531 19.554688 26.46875 C 20.175781 26.699219 20.449219 27.097656 20.449219 27.757812 Z M 20.449219 27.988281 "/>
<path style=" stroke:none;fill-rule:nonzero;fill:rgb(0%,0%,0%);fill-opacity:1;" d="M 6.613281 0 C 6.324219 0 6.085938 0.234375 6.085938 0.527344 L 6.085938 10.195312 C 5 10.4375 4.183594 11.410156 4.183594 12.566406 C 4.183594 13.90625 5.273438 15 6.613281 15 L 16.1875 15 L 16.1875 16.691406 C 11.679688 17.542969 8.261719 21.507812 8.261719 26.261719 C 8.261719 31.632812 12.628906 36 18 36 C 20.511719 36 22.898438 35.046875 24.714844 33.316406 C 24.925781 33.113281 24.933594 32.78125 24.734375 32.570312 C 24.53125 32.359375 24.199219 32.351562 23.988281 32.550781 C 22.367188 34.09375 20.238281 34.945312 18 34.945312 C 13.210938 34.945312 9.316406 31.050781 9.316406 26.261719 C 9.316406 21.875 12.582031 18.238281 16.808594 17.65625 C 17.589844 17.550781 18.402344 17.550781 19.1875 17.65625 C 23.417969 18.238281 26.683594 21.875 26.683594 26.261719 C 26.683594 27.957031 26.195312 29.601562 25.265625 31.015625 C 25.109375 31.261719 25.175781 31.585938 25.417969 31.746094 C 25.664062 31.90625 25.988281 31.839844 26.148438 31.59375 C 27.1875 30.007812 27.738281 28.164062 27.738281 26.261719 C 27.738281 21.507812 24.320312 17.542969 19.8125 16.691406 L 19.8125 15 L 29.386719 15 C 30.726562 15 31.816406 13.90625 31.816406 12.566406 C 31.816406 11.410156 31 10.4375 29.914062 10.195312 L 29.914062 0.527344 C 29.914062 0.234375 29.675781 0 29.386719 0 Z M 18.757812 16.550781 C 18.640625 16.542969 18.136719 16.519531 18 16.519531 C 17.746094 16.519531 17.496094 16.53125 17.242188 16.550781 L 17.242188 15 L 18.757812 15 Z M 14.101562 10.136719 L 14.101562 1.054688 L 21.898438 1.054688 L 21.898438 10.136719 Z M 28.859375 10.136719 L 26.289062 10.136719 L 26.289062 1.054688 L 28.859375 1.054688 Z M 25.234375 1.054688 L 25.234375 10.136719 L 22.953125 10.136719 L 22.953125 1.054688 Z M 7.140625 1.054688 L 9.710938 1.054688 L 9.710938 3.058594 C 9.710938 3.351562 9.945312 3.585938 10.238281 3.585938 C 10.527344 3.585938 10.765625 3.351562 10.765625 3.058594 L 10.765625 1.054688 L 13.046875 1.054688 L 13.046875 10.136719 L 10.765625 10.136719 L 10.765625 5.167969 C 10.765625 4.878906 10.527344 4.640625 10.238281 4.640625 C 9.945312 4.640625 9.710938 4.878906 9.710938 5.167969 L 9.710938 10.136719 L 7.140625 10.136719 Z M 6.613281 13.945312 C 5.855469 13.945312 5.238281 13.328125 5.238281 12.566406 C 5.238281 11.808594 5.855469 11.191406 6.613281 11.191406 L 29.386719 11.191406 C 30.144531 11.191406 30.761719 11.808594 30.761719 12.566406 C 30.761719 13.328125 30.144531 13.945312 29.386719 13.945312 Z M 6.613281 13.945312 "/>
</g>
</svg>
