<svg width="100%" height="100%" id="svg" viewBox="0 0 1200 500" xmlns="http://www.w3.org/2000/svg" class="transition duration-300 ease-in-out delay-150"><defs><linearGradient id="gradient" x1="50%" y1="100%" x2="50%" y2="0%"><stop offset="5%" stop-color="#00eeffff"></stop><stop offset="95%" stop-color="#36eefcff"></stop></linearGradient></defs><path d="M 0,700 C 0,700 0,350 0,350 C 45.16423726723393,286.7422863485017 90.32847453446786,223.48457269700333 142,232 C 193.67152546553214,240.51542730299667 251.85033912936245,320.8039955604883 311,368 C 370.14966087063755,415.1960044395117 430.2701689480823,429.2994450610433 487,400 C 543.7298310519177,370.7005549389567 597.0689850783083,297.9982241953385 655,284 C 712.9310149216917,270.0017758046615 775.4538907386852,314.70765815760274 825,311 C 874.5461092613148,307.29234184239726 911.1154519669504,255.17114317425077 959,231 C 1006.8845480330496,206.82885682574923 1066.0843013935132,210.607769145394 1128,248 C 1189.9156986064868,285.392230854606 1254.5473424589961,356.39778024417313 1307,379 C 1359.4526575410039,401.60221975582687 1399.7263287705018,375.8011098779134 1440,350 C 1440,350 1440,700 1440,700 Z" stroke="none" stroke-width="0" fill="url(#gradient)" class="transition-all duration-300 ease-in-out delay-150 path-0" transform="rotate(-180 720 350)"></path></svg>