<?xml version="1.0" encoding="UTF-8"?>
<svg xmlns="http://www.w3.org/2000/svg" xmlns:xlink="http://www.w3.org/1999/xlink" width="36pt" height="36pt" viewBox="0 0 36 36" version="1.1">
<g id="surface1">
<path style=" stroke:none;fill-rule:nonzero;fill:rgb(100%,100%,100%);fill-opacity:1;" d="M 4.722656 15.792969 C 4.472656 15.792969 4.269531 15.996094 4.269531 16.246094 L 4.269531 18.242188 C 4.269531 18.492188 4.472656 18.695312 4.722656 18.695312 C 4.972656 18.695312 5.171875 18.492188 5.171875 18.242188 L 5.171875 16.246094 C 5.171875 15.996094 4.972656 15.792969 4.722656 15.792969 Z M 10.382812 17.507812 C 8 17.507812 6.066406 19.441406 6.066406 21.828125 C 6.066406 24.210938 8 26.148438 10.382812 26.148438 C 12.769531 26.148438 14.703125 24.210938 14.703125 21.828125 C 14.703125 19.441406 12.769531 17.511719 10.382812 17.507812 Z M 10.382812 25.242188 C 8.496094 25.242188 6.96875 23.714844 6.96875 21.828125 C 6.96875 19.941406 8.496094 18.410156 10.382812 18.410156 C 12.269531 18.410156 13.800781 19.941406 13.800781 21.828125 C 13.800781 23.714844 12.269531 25.242188 10.382812 25.242188 Z M 10.382812 25.242188 "/>
<path style=" stroke:none;fill-rule:nonzero;fill:rgb(100%,100%,100%);fill-opacity:1;" d="M 31.277344 24.382812 L 25.234375 24.382812 L 25.285156 23.914062 L 25.285156 23.910156 L 25.902344 17.902344 C 25.898438 17.898438 25.898438 17.898438 25.902344 17.894531 L 26.402344 13.019531 C 26.417969 12.890625 26.375 12.765625 26.289062 12.671875 C 26.207031 12.574219 26.085938 12.519531 25.957031 12.519531 L 17.757812 12.519531 C 17.292969 11.445312 16.328125 10.667969 15.179688 10.445312 L 15.179688 8.136719 C 15.179688 8.019531 15.132812 7.902344 15.046875 7.820312 C 14.960938 7.734375 14.84375 7.6875 14.726562 7.6875 L 11.609375 7.6875 L 11.609375 5.769531 L 14.164062 5.769531 C 14.414062 5.769531 14.617188 5.566406 14.617188 5.320312 C 14.621094 4.207031 13.78125 3.277344 12.675781 3.15625 L 8.636719 2.726562 C 8.507812 2.714844 8.378906 2.753906 8.285156 2.839844 C 8.1875 2.925781 8.132812 3.046875 8.132812 3.175781 L 8.132812 5.320312 C 8.132812 5.566406 8.339844 5.769531 8.585938 5.769531 L 9.160156 5.769531 L 9.160156 7.6875 L 6.042969 7.6875 C 5.796875 7.6875 5.59375 7.886719 5.59375 8.136719 L 5.59375 10.445312 C 3.929688 10.769531 2.726562 12.226562 2.722656 13.925781 L 2.722656 31.277344 C 2.722656 32.378906 3.621094 33.277344 4.722656 33.277344 L 16.046875 33.277344 C 16.445312 33.277344 16.832031 33.15625 17.160156 32.9375 C 17.210938 33.136719 17.390625 33.277344 17.59375 33.277344 L 32.824219 33.277344 C 33.074219 33.277344 33.277344 33.074219 33.277344 32.824219 L 33.277344 26.378906 C 33.277344 25.277344 32.378906 24.382812 31.277344 24.382812 Z M 32.375 26.378906 L 32.375 26.445312 L 23.222656 26.445312 L 23.222656 26.378906 C 23.222656 25.773438 23.710938 25.285156 24.316406 25.285156 L 31.277344 25.285156 C 31.882812 25.285156 32.375 25.773438 32.375 26.378906 Z M 24.316406 24.382812 C 23.214844 24.382812 22.320312 25.277344 22.320312 26.378906 L 22.320312 29.003906 L 18.003906 29.003906 L 17.515625 24.3125 L 24.335938 24.3125 L 24.328125 24.382812 Z M 16.898438 18.308594 L 24.953125 18.308594 L 24.425781 23.410156 L 17.421875 23.410156 L 17.34375 22.648438 Z M 25.046875 17.40625 L 16.804688 17.40625 L 16.394531 13.421875 L 25.457031 13.421875 Z M 9.035156 3.675781 L 12.578125 4.054688 C 13.054688 4.105469 13.464844 4.421875 13.632812 4.867188 L 9.035156 4.867188 Z M 10.0625 5.769531 L 10.707031 5.769531 L 10.707031 7.6875 L 10.0625 7.6875 Z M 14.277344 8.589844 L 14.277344 10.378906 L 6.496094 10.378906 L 6.496094 8.589844 Z M 16.046875 32.375 L 4.722656 32.375 C 4.117188 32.375 3.625 31.882812 3.625 31.277344 L 3.625 13.925781 C 3.625 12.464844 4.8125 11.28125 6.269531 11.28125 L 14.5 11.28125 C 15.410156 11.277344 16.257812 11.746094 16.738281 12.519531 L 15.894531 12.519531 C 15.765625 12.519531 15.644531 12.574219 15.558594 12.671875 C 15.472656 12.765625 15.433594 12.890625 15.441406 13.019531 L 16.46875 22.929688 L 16.566406 23.910156 L 17.144531 29.476562 L 17.144531 31.277344 C 17.144531 31.882812 16.652344 32.375 16.046875 32.375 Z M 18.046875 31.277344 L 18.046875 29.90625 L 22.320312 29.90625 L 22.320312 32.375 L 18.046875 32.375 Z M 32.375 32.375 L 23.222656 32.375 L 23.222656 27.347656 L 32.375 27.347656 Z M 32.375 32.375 "/>
<path style=" stroke:none;fill-rule:nonzero;fill:rgb(100%,100%,100%);fill-opacity:1;" d="M 27.796875 27.949219 C 26.917969 27.949219 26.207031 28.808594 26.207031 29.859375 C 26.207031 30.914062 26.917969 31.773438 27.796875 31.773438 C 28.675781 31.773438 29.386719 30.914062 29.386719 29.859375 C 29.386719 28.808594 28.675781 27.949219 27.796875 27.949219 Z M 27.796875 30.871094 C 27.425781 30.871094 27.109375 30.40625 27.109375 29.859375 C 27.109375 29.3125 27.425781 28.851562 27.796875 28.851562 C 28.167969 28.851562 28.484375 29.3125 28.484375 29.859375 C 28.484375 30.40625 28.167969 30.871094 27.796875 30.871094 Z M 27.796875 30.871094 "/>
</g>
</svg>
