<?xml version="1.0" encoding="UTF-8"?>
<svg xmlns="http://www.w3.org/2000/svg" xmlns:xlink="http://www.w3.org/1999/xlink" width="36pt" height="36pt" viewBox="0 0 36 36" version="1.1">
<g id="surface1">
<path style=" stroke:none;fill-rule:nonzero;fill:rgb(100%,100%,100%);fill-opacity:1;" d="M 31.980469 15.9375 L 30.375 15.9375 C 30.1875 15.257812 29.574219 14.785156 28.867188 14.777344 L 27.152344 14.777344 L 27.152344 10.585938 C 27.15625 10.425781 27.074219 10.273438 26.9375 10.191406 L 14.84375 3.210938 C 14.710938 3.132812 14.539062 3.132812 14.398438 3.210938 L 2.304688 10.191406 C 2.164062 10.273438 2.078125 10.425781 2.078125 10.585938 L 2.078125 24.550781 C 2.078125 24.714844 2.164062 24.863281 2.304688 24.941406 L 14.402344 31.925781 C 14.46875 31.964844 14.546875 31.984375 14.625 31.984375 C 14.707031 31.984375 14.789062 31.964844 14.859375 31.925781 L 21.222656 28.253906 L 21.222656 30.90625 C 21.222656 31.421875 21.421875 31.90625 21.785156 32.269531 C 22.148438 32.625 22.640625 32.828125 23.148438 32.824219 L 31.980469 32.824219 C 32.492188 32.828125 32.984375 32.628906 33.351562 32.269531 C 33.710938 31.910156 33.921875 31.421875 33.921875 30.90625 L 33.921875 17.878906 C 33.921875 16.808594 33.054688 15.941406 31.980469 15.9375 Z M 28.882812 15.679688 C 29.242188 15.679688 29.539062 15.972656 29.539062 16.332031 L 29.539062 16.375 C 29.539062 16.738281 29.242188 17.03125 28.882812 17.03125 L 26.261719 17.03125 C 25.898438 17.03125 25.605469 16.738281 25.605469 16.375 L 25.605469 16.332031 C 25.605469 15.972656 25.898438 15.679688 26.261719 15.679688 Z M 14.625 4.125 L 19.652344 7.023438 L 8.460938 13.488281 L 3.433594 10.582031 Z M 14.195312 30.753906 L 2.980469 24.289062 L 2.980469 11.367188 L 14.195312 17.828125 Z M 14.625 17.046875 L 9.363281 14.007812 L 20.554688 7.546875 L 25.816406 10.582031 Z M 21.222656 17.878906 L 21.222656 27.210938 L 15.097656 30.753906 L 15.097656 17.828125 L 26.25 11.367188 L 26.25 14.777344 L 26.265625 14.777344 C 25.558594 14.785156 24.941406 15.257812 24.753906 15.9375 L 23.148438 15.9375 C 22.078125 15.941406 21.21875 16.8125 21.222656 17.878906 Z M 33.019531 30.90625 C 33.019531 31.179688 32.90625 31.441406 32.710938 31.632812 C 32.515625 31.820312 32.253906 31.925781 31.980469 31.921875 L 23.148438 31.921875 C 22.878906 31.925781 22.617188 31.820312 22.421875 31.632812 C 22.234375 31.4375 22.125 31.179688 22.125 30.90625 L 22.125 17.878906 C 22.121094 17.609375 22.230469 17.34375 22.421875 17.148438 C 22.613281 16.953125 22.875 16.84375 23.148438 16.839844 L 24.769531 16.839844 C 24.972656 17.492188 25.578125 17.941406 26.265625 17.933594 L 28.867188 17.933594 C 29.550781 17.941406 30.160156 17.492188 30.359375 16.839844 L 31.980469 16.839844 C 32.554688 16.84375 33.019531 17.308594 33.019531 17.878906 Z M 33.019531 30.90625 "/>
<path style=" stroke:none;fill-rule:nonzero;fill:rgb(100%,100%,100%);fill-opacity:1;" d="M 23.667969 22.445312 L 24.140625 22.445312 C 24.390625 22.445312 24.59375 22.246094 24.59375 21.996094 C 24.59375 21.746094 24.390625 21.542969 24.140625 21.542969 L 24.125 21.542969 L 24.125 20.320312 L 25.371094 20.320312 C 25.425781 20.503906 25.601562 20.632812 25.796875 20.625 C 26.046875 20.625 26.25 20.421875 26.25 20.171875 L 26.25 19.871094 C 26.246094 19.621094 26.046875 19.417969 25.796875 19.417969 L 23.667969 19.417969 C 23.550781 19.417969 23.4375 19.46875 23.351562 19.550781 C 23.265625 19.636719 23.222656 19.75 23.222656 19.871094 L 23.222656 21.996094 C 23.222656 22.113281 23.265625 22.226562 23.351562 22.3125 C 23.4375 22.398438 23.550781 22.445312 23.667969 22.445312 Z M 23.671875 26.570312 L 25.800781 26.570312 C 26.050781 26.570312 26.25 26.371094 26.25 26.121094 L 26.25 23.992188 C 26.25 23.742188 26.050781 23.542969 25.800781 23.542969 L 23.671875 23.542969 C 23.421875 23.542969 23.222656 23.742188 23.222656 23.992188 L 23.222656 26.121094 C 23.222656 26.371094 23.421875 26.570312 23.671875 26.570312 Z M 24.125 24.445312 L 25.347656 24.445312 L 25.347656 25.667969 L 24.125 25.667969 Z M 24.140625 29.792969 L 24.125 29.792969 L 24.125 28.570312 L 25.34375 28.570312 C 25.347656 28.816406 25.546875 29.011719 25.796875 29.011719 C 26.042969 29.011719 26.246094 28.816406 26.25 28.570312 L 26.25 28.136719 C 26.25 27.882812 26.046875 27.675781 25.796875 27.667969 L 23.667969 27.667969 C 23.417969 27.675781 23.21875 27.882812 23.222656 28.136719 L 23.222656 30.261719 C 23.222656 30.378906 23.265625 30.492188 23.351562 30.574219 C 23.4375 30.65625 23.550781 30.699219 23.667969 30.695312 L 24.140625 30.695312 C 24.390625 30.695312 24.59375 30.496094 24.59375 30.246094 C 24.59375 29.996094 24.390625 29.792969 24.140625 29.792969 Z M 24.140625 29.792969 "/>
<path style=" stroke:none;fill-rule:nonzero;fill:rgb(100%,100%,100%);fill-opacity:1;" d="M 26.832031 19.972656 L 25.511719 21.292969 L 25.109375 20.890625 C 24.933594 20.714844 24.644531 20.714844 24.46875 20.890625 C 24.296875 21.066406 24.296875 21.351562 24.46875 21.53125 L 25.195312 22.25 C 25.371094 22.425781 25.65625 22.425781 25.832031 22.25 L 27.472656 20.609375 C 27.648438 20.433594 27.648438 20.148438 27.472656 19.972656 C 27.296875 19.792969 27.007812 19.792969 26.832031 19.972656 Z M 26.832031 28.300781 L 25.511719 29.621094 L 25.109375 29.222656 C 24.933594 29.046875 24.644531 29.046875 24.46875 29.222656 C 24.296875 29.398438 24.296875 29.683594 24.46875 29.859375 L 25.195312 30.578125 C 25.371094 30.757812 25.65625 30.757812 25.832031 30.578125 L 27.472656 28.9375 C 27.648438 28.761719 27.648438 28.476562 27.472656 28.300781 C 27.296875 28.125 27.007812 28.125 26.832031 28.300781 Z M 31.460938 20.511719 L 28.628906 20.511719 C 28.378906 20.511719 28.175781 20.714844 28.175781 20.964844 C 28.175781 21.214844 28.378906 21.414062 28.628906 21.414062 L 31.460938 21.414062 C 31.710938 21.414062 31.910156 21.214844 31.910156 20.964844 C 31.910156 20.714844 31.710938 20.511719 31.460938 20.511719 Z M 31.460938 24.636719 L 28.628906 24.636719 C 28.378906 24.636719 28.175781 24.839844 28.175781 25.089844 C 28.175781 25.339844 28.378906 25.539062 28.628906 25.539062 L 31.460938 25.539062 C 31.710938 25.539062 31.910156 25.339844 31.910156 25.089844 C 31.910156 24.839844 31.710938 24.636719 31.460938 24.636719 Z M 31.460938 28.761719 L 28.628906 28.761719 C 28.378906 28.761719 28.175781 28.964844 28.175781 29.214844 C 28.175781 29.464844 28.378906 29.664062 28.628906 29.664062 L 31.460938 29.664062 C 31.710938 29.664062 31.910156 29.464844 31.910156 29.214844 C 31.910156 28.964844 31.710938 28.761719 31.460938 28.761719 Z M 31.460938 28.761719 "/>
</g>
</svg>
