<svg xmlns="http://www.w3.org/2000/svg" viewBox="0 0 153.47 49.66"><defs><style>.cls-1,.cls-2{fill:#fff;}.cls-2{opacity:0.38;}</style></defs><g id="Layer_2" data-name="Layer 2"><g id="Layer_1-2" data-name="Layer 1"><path class="cls-1" d="M142.36,0h-20.5a11.11,11.11,0,0,0-11.11,11.11V31.6a11.11,11.11,0,0,0,11.11,11.11h20.5A11.11,11.11,0,0,0,153.47,31.6V11.11A11.11,11.11,0,0,0,142.36,0ZM122.63,37.42a6.83,6.83,0,1,1,6.84-6.83A6.83,6.83,0,0,1,122.63,37.42Zm0-18.53a6.84,6.84,0,1,1,6.84-6.83A6.83,6.83,0,0,1,122.63,18.89Zm19,18.53a6.83,6.83,0,1,1,6.83-6.83A6.83,6.83,0,0,1,141.59,37.42Zm0-18.53a6.84,6.84,0,1,1,6.83-6.83A6.83,6.83,0,0,1,141.59,18.89Z"/><path class="cls-2" d="M8.91,29.7V45.2A4.46,4.46,0,0,1,4,49.64,4.58,4.58,0,0,1,0,45V29.89a4.58,4.58,0,0,1,4-4.63A4.46,4.46,0,0,1,8.91,29.7Z"/><path class="cls-2" d="M3.75,20.42a4.46,4.46,0,1,1,5.11-5.11A4.47,4.47,0,0,1,3.75,20.42Z"/><path class="cls-2" d="M90.22,6.66a4.34,4.34,0,0,1-4,2.54h0a4.48,4.48,0,0,1-4-6.37,4.34,4.34,0,0,1,4-2.54h0A4.48,4.48,0,0,1,90.22,6.66Z"/><path class="cls-2" d="M101.63,6.66a4.35,4.35,0,0,1-4,2.54,4.49,4.49,0,0,1-4.06-6.37,4.35,4.35,0,0,1,4-2.54h0A4.49,4.49,0,0,1,101.63,6.66Z"/><path class="cls-2" d="M101.63,18a4.35,4.35,0,0,1-4,2.54,4.49,4.49,0,0,1-4.06-6.37,4.35,4.35,0,0,1,4-2.54h0A4.49,4.49,0,0,1,101.63,18Z"/><path class="cls-2" d="M22.34,4.75V37.89a4.46,4.46,0,0,1-4.89,4.44,4.58,4.58,0,0,1-4-4.63V4.94a4.58,4.58,0,0,1,4-4.63A4.46,4.46,0,0,1,22.34,4.75Z"/><path class="cls-2" d="M102.3,37.89a4.46,4.46,0,0,1-4.46,4.46H74c-.8.06-6.31.68-10.33-3.24-3.52-3.42-3.38-8-3.42-9V4.75A4.46,4.46,0,0,1,65.13.31a4.58,4.58,0,0,1,4,4.63c0,7.27-.85,12.85,0,22.41a6.77,6.77,0,0,0,1.75,4.41c1.78,1.77,4.44,1.76,5.62,1.68H97.84a4.46,4.46,0,0,1,4.46,4.45Z"/><path class="cls-2" d="M55.77,23.71A14.53,14.53,0,0,0,55,20.88c-.64-1.36-3.36-6.86-9.41-8.69a14.54,14.54,0,0,0-4.6-.62,14.69,14.69,0,0,0,.35,29.37,14.64,14.64,0,0,0,5.78-1.18V45a4.58,4.58,0,0,0,4,4.63A4.46,4.46,0,0,0,56,45.2V26.43A14.75,14.75,0,0,0,55.77,23.71ZM47,27a5.74,5.74,0,1,1-11.26-2.12A5.74,5.74,0,0,1,47,27Z"/><path class="cls-1" d="M8.86,15.31a4.46,4.46,0,1,1-3.7-3.69A4.46,4.46,0,0,1,8.86,15.31Z"/><path class="cls-1" d="M8.91,29.7V45.2A4.46,4.46,0,0,1,4,49.64,4.58,4.58,0,0,1,0,45V29.89a4.58,4.58,0,0,1,4-4.63A4.46,4.46,0,0,1,8.91,29.7Z"/><path class="cls-1" d="M22.34,4.75V37.89a4.46,4.46,0,0,1-4.89,4.44,4.58,4.58,0,0,1-4-4.63V4.94a4.58,4.58,0,0,1,4-4.63A4.46,4.46,0,0,1,22.34,4.75Z"/><path class="cls-1" d="M55.77,23.71A14.53,14.53,0,0,0,55,20.88c-.64-1.36-3.36-6.86-9.41-8.69a14.54,14.54,0,0,0-4.6-.62,14.69,14.69,0,0,0,.35,29.37,14.64,14.64,0,0,0,5.78-1.18V45a4.58,4.58,0,0,0,4,4.63A4.46,4.46,0,0,0,56,45.2V26.43A14.75,14.75,0,0,0,55.77,23.71ZM47,27a5.74,5.74,0,1,1-11.26-2.12A5.74,5.74,0,0,1,47,27Z"/><path class="cls-1" d="M82.12,2.83a4.34,4.34,0,0,1,4-2.54h0a4.48,4.48,0,0,1,4,6.37,4.34,4.34,0,0,1-4,2.54h0A4.48,4.48,0,0,1,82.12,2.83Z"/><path class="cls-1" d="M102.3,37.89a4.46,4.46,0,0,1-4.46,4.46H74c-.8.06-6.31.68-10.33-3.24-3.52-3.42-3.38-8-3.42-9V4.75A4.46,4.46,0,0,1,65.13.31a4.58,4.58,0,0,1,4,4.63c0,7.27-.85,12.85,0,22.41a6.77,6.77,0,0,0,1.75,4.41c1.78,1.77,4.44,1.76,5.62,1.68H97.84a4.46,4.46,0,0,1,4.46,4.45Z"/><path class="cls-1" d="M93.52,14.18a4.35,4.35,0,0,1,4-2.54h0a4.49,4.49,0,0,1,4,6.37,4.35,4.35,0,0,1-4,2.54A4.49,4.49,0,0,1,93.52,14.18Z"/><path class="cls-1" d="M93.52,2.83a4.35,4.35,0,0,1,4-2.54h0a4.49,4.49,0,0,1,4,6.37,4.35,4.35,0,0,1-4,2.54A4.49,4.49,0,0,1,93.52,2.83Z"/></g></g></svg>