<svg xmlns="http://www.w3.org/2000/svg" viewBox="0 0 153.47 49.66"><defs><style>.cls-1,.cls-2{fill:#fff;}.cls-2{opacity:0.38;}</style></defs><g id="Layer_2" data-name="Layer 2"><g id="Layer_1-2" data-name="Layer 1"><path class="cls-1" d="M142.36,0h-20.5a11.11,11.11,0,0,0-11.11,11.11V31.6a11.11,11.11,0,0,0,11.11,11.11h20.5A11.11,11.11,0,0,0,153.47,31.6V11.11A11.11,11.11,0,0,0,142.36,0ZM122.63,37.42a6.83,6.83,0,1,1,6.84-6.83A6.83,6.83,0,0,1,122.63,37.42Zm0-18.53a6.84,6.84,0,1,1,6.84-6.83A6.83,6.83,0,0,1,122.63,18.89Zm19,18.53a6.83,6.83,0,1,1,6.83-6.83A6.83,6.83,0,0,1,141.59,37.42Zm0-18.53a6.84,6.84,0,1,1,6.83-6.83A6.83,6.83,0,0,1,141.59,18.89Z"/></g></g></svg>