<?xml version="1.0" encoding="utf-8"?>
<!-- Generator: Adobe Illustrator 24.0.0, SVG Export Plug-In . SVG Version: 6.00 Build 0)  -->
<svg version="1.1" id="Layer_1" xmlns="http://www.w3.org/2000/svg" xmlns:xlink="http://www.w3.org/1999/xlink" x="0px" y="0px"
	 viewBox="0 0 97.5 34.6" style="enable-background:new 0 0 97.5 34.6;" xml:space="preserve">
<style type="text/css">
	.st0{fill:#C4268F;}
	.st1{fill:#E3EEC6;}
	.st2{fill:#C7E9F4;}
	.st3{fill:#FDD7CA;}
	.st4{fill:#FFF9B8;}
	.st5{fill:#C4258F;}
</style>
<g>
	<path class="st0" d="M89.4,28.7H77.1c-3.9,0-7-3.1-7-7V9.4c0-3.9,3.1-7,7-7h12.3c3.9,0,7,3.1,7,7v12.3
		C96.4,25.5,93.2,28.7,89.4,28.7z"/>
	<circle class="st1" cx="89.2" cy="9.8" r="4.5"/>
	<circle class="st2" cx="89.2" cy="21.1" r="4.5"/>
	<circle class="st3" cx="77.5" cy="9.8" r="4.5"/>
	<circle class="st4" cx="77.5" cy="21.1" r="4.5"/>
</g>
<circle class="st5" cx="61.8" cy="12.1" r="2.8"/>
<circle class="st5" cx="61.8" cy="5.2" r="2.8"/>
<circle class="st5" cx="54.8" cy="5.2" r="2.8"/>
<circle class="st5" cx="3.9" cy="12.1" r="2.8"/>
<path class="st5" d="M12.2,28.7h-0.1c-1.5,0-2.7-1.2-2.7-2.7V5.1c0-1.5,1.2-2.7,2.7-2.7h0.1c1.5,0,2.7,1.2,2.7,2.7V26
	C14.9,27.5,13.7,28.7,12.2,28.7z"/>
<path class="st5" d="M4,32.8H3.8c-1.5,0-2.7-1.2-2.7-2.7v-9.8c0-1.5,1.2-2.7,2.7-2.7H4c1.5,0,2.7,1.2,2.7,2.7v9.8
	C6.7,31.6,5.4,32.8,4,32.8z"/>
<path class="st5" d="M35.7,18.3c0-5-4-9-9-9s-9,4-9,9s4,9,9,9c1.2,0,2.4-0.3,3.5-0.7v3.5c0,1.5,1.2,2.8,2.8,2.8s2.8-1.2,2.8-2.8V19
	c0-0.1,0-0.2,0-0.3C35.6,18.6,35.7,18.4,35.7,18.3z M26.7,21.8c-1.9,0-3.5-1.5-3.5-3.5c0-1.9,1.5-3.5,3.5-3.5s3.5,1.5,3.5,3.5
	C30.1,20.2,28.6,21.8,26.7,21.8z"/>
<path class="st5" d="M61.8,23.1l-13.9,0c0,0-0.3,0-0.3,0c-1.8,0-3.3-1.5-3.4-3.2l0-1.2V5.1c0-1.5-1.2-2.8-2.8-2.8
	c-1.5,0-2.8,1.3-2.8,2.8v14.8c0,0.1,0,0.2,0,0.3c0,0.1,0,0.6,0,0.7c0.5,4.3,4.5,7.8,8.5,7.8c0,0-0.2,0-0.2,0l0.3,0
	c0.1,0,0.6,0,0.7,0l13.9,0c1.5,0,2.8-1.3,2.8-2.8C64.5,24.4,63.3,23.1,61.8,23.1z"/>
</svg>
