<svg xmlns="http://www.w3.org/2000/svg" width="64" height="64" viewBox="0 0 64 64">
  <g id="Group_1" data-name="Group 1" transform="translate(329 -223)">
    <g id="Ellipse_2" data-name="Ellipse 2" transform="translate(-329 223)" fill="none" stroke="#fff" stroke-width="1.5">
      <circle cx="32" cy="32" r="32" stroke="none"/>
      <circle cx="32" cy="32" r="31.25" fill="none"/>
    </g>
    <path id="icons8_crescent_moon" d="M22.818,2a.87.87,0,0,0-.234,1.692A14.8,14.8,0,1,1,3.691,22.584.87.87,0,0,0,2,22.907,20.01,20.01,0,1,0,22.906,2Zm5.132,2.785A18.232,18.232,0,1,1,4.785,27.951,16.486,16.486,0,1,0,27.951,4.785Z" transform="translate(-318.999 233)" fill="#fff"/>
  </g>
</svg>
