<svg xmlns="http://www.w3.org/2000/svg" width="64" height="64" viewBox="0 0 64 64">
  <g id="Group_2" data-name="Group 2" transform="translate(241 -223)">
    <g id="Ellipse_1" data-name="Ellipse 1" transform="translate(-241 223)" fill="none" stroke="#000" stroke-width="1.5">
      <circle cx="32" cy="32" r="32" stroke="none"/>
      <circle cx="32" cy="32" r="31.25" fill="none"/>
    </g>
    <path id="icons8_sun_1" d="M23.825,3.969a1.1,1.1,0,0,0-.119.03.951.951,0,0,0-.741.949v5.692a.949.949,0,1,0,1.9,0V4.947a.95.95,0,0,0-1.038-.978ZM10.307,9.542a.943.943,0,0,0-.741.667.953.953,0,0,0,.267.963L13.864,15.2A.949.949,0,1,0,15.2,13.87L11.167,9.838a.952.952,0,0,0-.771-.3Zm26.918,0a.953.953,0,0,0-.563.3L32.63,13.87A.949.949,0,1,0,33.964,15.2L38,11.172a.948.948,0,0,0-.771-1.631Zm-13.4,4.892a.815.815,0,0,0-.089.03.992.992,0,0,0-.178.03l-.03.03a9.457,9.457,0,1,0,.83,0c-.033,0-.056-.03-.089-.03a.917.917,0,0,0-.3-.059h-.148Zm.03,1.9H24a7.6,7.6,0,1,1-.148,0ZM4.674,22.972a.958.958,0,0,0,.267,1.9h5.692a.949.949,0,1,0,0-1.9H4.674Zm32.255,0a.958.958,0,0,0,.267,1.9h5.692a.949.949,0,1,0,0-1.9H36.929Zm-22.5,9.368a.953.953,0,0,0-.563.3L9.833,36.668A.949.949,0,1,0,11.167,38L15.2,33.97a.949.949,0,0,0-.682-1.631Zm18.677,0a.942.942,0,0,0-.741.667.953.953,0,0,0,.267.964L36.662,38A.949.949,0,1,0,38,36.668l-4.032-4.032a.949.949,0,0,0-.682-.3H33.1Zm-9.279,3.884a1.1,1.1,0,0,0-.119.03.951.951,0,0,0-.741.949v5.692a.949.949,0,1,0,1.9,0V37.2a.95.95,0,0,0-1.038-.978Z" transform="translate(-232.849 231.144)"/>
  </g>
</svg>
