<?xml version="1.0" encoding="utf-8"?>
<!-- Generator: Adobe Illustrator 23.0.1, SVG Export Plug-In . SVG Version: 6.00 Build 0)  -->
<svg version="1.1" id="Layer_1" xmlns="http://www.w3.org/2000/svg" xmlns:xlink="http://www.w3.org/1999/xlink" x="0px" y="0px"
	 viewBox="0 0 24 24" style="enable-background:new 0 0 24 24;" xml:space="preserve">
<style type="text/css">
	.st0{fill:#FFFFFF;fill-opacity:0.8;stroke:#8838FF;stroke-width:0.5;stroke-miterlimit:10;}
	.st1{fill:#FFA633;stroke:#8838FF;stroke-width:0.5;stroke-miterlimit:10;}
	.st2{fill:none;stroke:#2AD185;stroke-width:0.5;stroke-miterlimit:10;}
	.st3{fill:none;stroke:#FFA633;stroke-width:0.5;stroke-linecap:round;stroke-miterlimit:10;}
</style>
<path class="st0" d="M18,22H6c-0.6,0-1-0.4-1-1V4c0-0.6,0.4-1,1-1h12c0.6,0,1,0.4,1,1v17C19,21.6,18.6,22,18,22z"/>
<path class="st1" d="M14,4h-4C9.4,4,9,3.6,9,3v0c0-0.6,0.4-1,1-1h4c0.6,0,1,0.4,1,1v0C15,3.6,14.6,4,14,4z"/>
<circle class="st2" cx="8" cy="8" r="1"/>
<circle class="st2" cx="8" cy="13" r="1"/>
<circle class="st2" cx="8" cy="18" r="1"/>
<line class="st3" x1="11" y1="7" x2="16" y2="7"/>
<line class="st3" x1="11" y1="8" x2="14" y2="8"/>
<line class="st3" x1="11" y1="12" x2="16" y2="12"/>
<line class="st3" x1="11" y1="13" x2="14" y2="13"/>
<line class="st3" x1="11" y1="17" x2="16" y2="17"/>
<line class="st3" x1="11" y1="18" x2="14" y2="18"/>
</svg>
