<?xml version="1.0" encoding="utf-8"?>
<!-- Generator: Adobe Illustrator 23.0.1, SVG Export Plug-In . SVG Version: 6.00 Build 0)  -->
<svg version="1.1" id="Layer_1" xmlns="http://www.w3.org/2000/svg" xmlns:xlink="http://www.w3.org/1999/xlink" x="0px" y="0px"
	 viewBox="0 0 24 24" style="enable-background:new 0 0 24 24;" xml:space="preserve">
<style type="text/css">
	.st0{display:none;}
	.st1{display:inline;fill:#FFFFFF;}
	.st2{display:inline;fill:#6401F6;}
	.st3{fill:none;stroke:#6401F6;stroke-width:0.25;stroke-miterlimit:10;}
	.st4{fill:#FCE6C8;stroke:#6401F6;stroke-width:0.25;stroke-miterlimit:10;}
	.st5{fill:#169E90;}
	.st6{fill:#6401F6;}
	.st7{fill:#D58C10;stroke:#6401F6;stroke-width:0.2739;stroke-miterlimit:2;}
	.st8{fill:#169E90;stroke:#6401F6;stroke-width:0.2739;stroke-miterlimit:2;}
</style>
<title>widget-sale</title>
<g class="st0">
	<path class="st1" d="M6.2,15.8V3c0-0.5,0.4-0.8,0.8-0.8h10c0.5,0,0.8,0.4,0.8,0.8v12.8H6.2z"/>
	<path class="st2" d="M17,2.3c0.4,0,0.7,0.3,0.7,0.7v12.7H6.3V3c0-0.4,0.3-0.7,0.7-0.7H17 M17,2H7C6.4,2,6,2.4,6,3v13h12V3
		C18,2.4,17.6,2,17,2L17,2z"/>
</g>
<path class="st3" d="M8.2,16.2L7,18l-1.2-1.8C3.6,16.7,2,18.7,2,21v1h10v-1C12,18.7,10.4,16.7,8.2,16.2z"/>
<circle class="st4" cx="7" cy="13" r="3"/>
<g>
	<path class="st5" d="M4.1,10.9c0-1,0.8-1.7,1.7-1.7h4c0,1-0.8,1.7-1.7,1.7H4.1z"/>
	<g>
		<path class="st6" d="M9.7,9.3c-0.1,0.8-0.8,1.5-1.6,1.5H4.3c0-0.9,0.7-1.5,1.6-1.5H9.7 M10,9H5.9C4.8,9,4,9.8,4,10.9V11h4.1
			c1,0,1.9-0.8,1.9-1.9V9L10,9z"/>
	</g>
</g>
<polygon class="st7" points="7,18 6,21 7,22 8,21 "/>
<path class="st3" d="M18.2,9.2L17,11l-1.2-1.8C13.6,9.7,12,11.7,12,14v1h10v-1C22,11.7,20.4,9.7,18.2,9.2z"/>
<circle class="st4" cx="17" cy="6" r="3"/>
<path class="st7" d="M18.1,4H14V3.9c0-1,0.8-1.9,1.9-1.9H20v0.1C20,3.2,19.2,4,18.1,4z"/>
<polygon class="st8" points="17,11 16,14 17,15 18,14 "/>
</svg>
