<?xml version="1.0" encoding="utf-8"?>
<!-- Generator: Adobe Illustrator 23.0.1, SVG Export Plug-In . SVG Version: 6.00 Build 0)  -->
<svg version="1.1" id="Layer_1" xmlns="http://www.w3.org/2000/svg" xmlns:xlink="http://www.w3.org/1999/xlink" x="0px" y="0px"
	 viewBox="0 0 27 22" style="enable-background:new 0 0 30 30;" xml:space="preserve">
<style type="text/css">
	.st0{fill:#6401F6;}
	.st1{fill:none;stroke:#8838FF;stroke-width:0.5;stroke-miterlimit:10;}
	.st2{fill:#6401F6;stroke:#8838FF;stroke-width:0.5;stroke-miterlimit:10;}
	.st3{fill:#8838FF;fill-opacity:0.2;stroke:#8838FF;stroke-width:0.5;stroke-miterlimit:10;}
	.st4{opacity:0.2;fill:#8838FF;enable-background:new    ;}
	.st5{fill:#8838FF;}
	.st6{opacity:0.8;}
	.st7{fill:#FFFFFF;}
	.st8{fill:#D58C10;stroke:#6401F6;stroke-width:0.25;stroke-miterlimit:10;}
	.st9{display:none;}
	.st10{display:inline;fill:#FFFFFF;}
	.st11{display:inline;fill:#6401F6;}
	.st12{fill:none;stroke:#6401F6;stroke-width:0.25;stroke-miterlimit:10;}
</style>
<path class="st0" d="M22,5c0-0.6-0.4-1-1-1h-3v12h4V5z"/>
<path class="st1" d="M22,16V5c0-0.6-0.4-1-1-1h-3"/>
<path class="st0" d="M3,4C2.4,4,2,4.4,2,5v11h4V4H3z"/>
<path class="st2" d="M6,4H3C2.4,4,2,4.4,2,5v11"/>
<path class="st3" d="M2,16v1c0,0.6,0.4,1,1,1h18c0.6,0,1-0.4,1-1v-1"/>
<title>widget-sale</title>
<g>
	<path class="st4" d="M8,21.8c-0.4,0-0.8-0.3-0.8-0.8s0.3-0.8,0.8-0.8h8c0.4,0,0.8,0.3,0.8,0.8s-0.3,0.8-0.8,0.8H8z"/>
	<path class="st5" d="M16,20.5c0.3,0,0.5,0.2,0.5,0.5s-0.2,0.5-0.5,0.5H8c-0.3,0-0.5-0.2-0.5-0.5s0.2-0.5,0.5-0.5H16 M16,20H8
		c-0.6,0-1,0.4-1,1s0.4,1,1,1h8c0.6,0,1-0.4,1-1S16.6,20,16,20L16,20z"/>
</g>
<g class="st6">
	<path class="st7" d="M17,2.3c0.4,0,0.7,0.3,0.7,0.7v12.7H6.3V3c0-0.4,0.3-0.7,0.7-0.7H17"/>
</g>
<polyline class="st8" points="15,2 15,5 16,4 17,5 17,2 "/>
<g>
	<polygon class="st4" points="9.2,20.3 10.1,18.2 13.9,18.2 14.8,20.3 	"/>
	<path class="st5" d="M13.8,18.3l0.8,1.9H9.5l0.8-1.9H13.8 M14,18h-4l-1,2.5h6L14,18L14,18z"/>
</g>
<g>
	<path class="st0" d="M17,2.3c0.4,0,0.7,0.3,0.7,0.7v12.7H6.3V3c0-0.4,0.3-0.7,0.7-0.7H17 M17,2H7C6.4,2,6,2.4,6,3v13h12V3
		C18,2.4,17.6,2,17,2L17,2z"/>
</g>
<g class="st9">
	<path class="st10" d="M6.2,15.8V3c0-0.5,0.4-0.8,0.8-0.8h10c0.5,0,0.8,0.4,0.8,0.8v12.8H6.2z"/>
	<path class="st11" d="M17,2.3c0.4,0,0.7,0.3,0.7,0.7v12.7H6.3V3c0-0.4,0.3-0.7,0.7-0.7H17 M17,2H7C6.4,2,6,2.4,6,3v13h12V3
		C18,2.4,17.6,2,17,2L17,2z"/>
</g>
<path class="st8" d="M8.6,9h4.7c0.3,0,0.6,0.3,0.5,0.6l-0.8,3c0,0.2-0.2,0.4-0.4,0.4H9.4c-0.2,0-0.4-0.2-0.5-0.4l-0.8-3
	C8.1,9.3,8.3,9,8.6,9z"/>
<line class="st12" x1="10" y1="10" x2="10" y2="12"/>
<line class="st12" x1="12" y1="10" x2="12" y2="12"/>
<line class="st12" x1="11" y1="10" x2="11" y2="12"/>
<line class="st12" x1="13" y1="9" x2="13" y2="8"/>
<line class="st12" x1="9" y1="9" x2="9" y2="8"/>
<line class="st12" x1="8" y1="4" x2="9" y2="4"/>
<line class="st12" x1="10" y1="4" x2="12" y2="4"/>
<line class="st12" x1="8" y1="5" x2="12" y2="5"/>
<polyline class="st12" points="15,10 15.5,10.5 17,9 "/>
<polyline class="st12" points="15,12 15.5,12.5 17,11 "/>
</svg>
