<svg height="50" viewBox="0 0 75 70" width="50" xmlns="http://www.w3.org/2000/svg"><g id="forklift"><path d="m41 51h20v4h-20z" fill="#c0ab91"/><path d="m35 25h26v26h-26z" fill="#ebe5dd"/><path d="m59 25v26h2v-26z" fill="#d9ccbc"/><path d="m53 25v10l-5 2-5-2v-10z" fill="#ffb655"/><path d="m53 25v10l-5 2-1-.4 4-1.6v-10z" fill="#ffa733"/><path d="m57 25h4v4h-4z" fill="#c0ab91"/><path d="m51 11v14h-5-3-4-4v-14h4v3 3l4 2 4-2v-3-3z" fill="#ebe5dd"/><path d="m39 11v3 3l4 2 4-2v-3-3z" fill="#ffb655"/><path d="m41 49v6h-38v-10h34a4 4 0 0 1 4 4z" fill="#00d7df"/><path d="m41 49v6h-2v-6a4 4 0 0 0 -4-4h2a4 4 0 0 1 4 4z" fill="#00b6bd"/><path d="m35 25h4v4h-4z" fill="#c0ab91"/><circle cx="31" cy="55" fill="#ffeb99" r="6"/><path d="m35 29v16h-4v-42h4v8 14z" fill="#c0ab91"/><circle cx="31" cy="55" fill="#57a4ff" r="2"/><path d="m26.59 20.3.12.7h-19.71a4 4 0 0 1 4-4h11.65a4 4 0 0 1 3.94 3.3z" fill="#00d7df"/><path d="m31 45h-20v-15h-4v-9h19.71z" fill="#57a4ff"/><path d="m26.71 21h-2l-.12-.7a4 4 0 0 0 -3.94-3.3h2a4 4 0 0 1 3.94 3.3z" fill="#00b6bd"/><path d="m31 45h-2l-4.29-24h2z" fill="#2488ff"/><circle cx="13" cy="55" fill="#ffeb99" r="6"/><circle cx="13" cy="55" fill="#57a4ff" r="2"/><path d="m7 30h4v15h-4z" fill="#ffeb99"/><path d="m46 27h4v2h-4z"/><path d="m46 30h4v2h-4z"/><path d="m61 24h-9v-13a1 1 0 0 0 -1-1h-15v-7a1 1 0 0 0 -1-1h-4a1 1 0 0 0 -1 1v30.711l-2.427-13.59a5 5 0 0 0 -4.922-4.121h-11.651a5.006 5.006 0 0 0 -5 5v23h-3a1 1 0 0 0 -1 1v10a1 1 0 0 0 1 1h3.08a6.991 6.991 0 0 0 13.84 0h4.16a6.991 6.991 0 0 0 13.84 0h23.08a1 1 0 0 0 1-1v-30a1 1 0 0 0 -1-1zm-1 4h-2v-2h2zm-16-2h8v8.323l-4 1.6-4-1.6zm-4-14h6v4.382l-3 1.5-3-1.5zm-2 0v5a1 1 0 0 0 .553.895l4 2a1 1 0 0 0 .894 0l4-2a1 1 0 0 0 .553-.895v-5h2v12h-14v-12zm0 14v2h-2v-2zm-4-22v40h-2v-40zm-4.194 40h-1.972l-1.851-10.179a1 1 0 0 0 -.983-.821h-3v2h2.165l1.635 9h-2.045l-1.793-6.274a1 1 0 0 0 -.962-.726h-3v2h2.246l1.428 5h-2.674v-3a1 1 0 0 0 -1-1h-3v2h2v2h-5v-14a1 1 0 0 0 -1-1h-3v-7h17.877zm-19.806 0h-2v-13h2zm1-26h11.651a3 3 0 0 1 2.825 2h-17.292a3 3 0 0 1 2.816-2zm2 42a5 5 0 1 1 5-5 5.006 5.006 0 0 1 -5 5zm18 0a5 5 0 1 1 5-5 5.006 5.006 0 0 1 -5 5zm9-6h-2.08a6.991 6.991 0 0 0 -13.84 0h-4.16a6.991 6.991 0 0 0 -13.84 0h-2.08v-8h33a3 3 0 0 1 3 3zm-3-10h-1v-14h3a1 1 0 0 0 1-1v-3h2v9a1 1 0 0 0 .629.929l5 2a1 1 0 0 0 .742 0l5-2a1 1 0 0 0 .629-.929v-9h2v3a1 1 0 0 0 1 1h3v20h-18v-1a5.006 5.006 0 0 0 -5-5zm23 10h-18v-2h18z"/><path d="m41 13h4v2h-4z"/><path d="m52 42h6v2h-6z"/><path d="m52 46h6v2h-6z"/><path d="m31 52a3 3 0 1 0 3 3 3 3 0 0 0 -3-3zm0 4a1 1 0 1 1 1-1 1 1 0 0 1 -1 1z"/><path d="m13 52a3 3 0 1 0 3 3 3 3 0 0 0 -3-3zm0 4a1 1 0 1 1 1-1 1 1 0 0 1 -1 1z"/></g></svg>